<?xml version="1.0" encoding="utf-8"?>
<!-- Generator: Adobe Illustrator 21.1.0, SVG Export Plug-In . SVG Version: 6.00 Build 0)  -->
<svg version="1.1" id="Layer_1" xmlns="http://www.w3.org/2000/svg" xmlns:xlink="http://www.w3.org/1999/xlink" x="0px" y="0px"
	 viewBox="0 0 32 32" enable-background="new 0 0 32 32" xml:space="preserve">
<g id="icomoon-ignore">
</g>
<path fill="#FFFFFF" d="M24.9,25.3c1.8-2.1,2.9-4.7,2.9-7.7c0-6.5-5.3-11.7-11.7-11.7l0,0c-6.5,0-11.7,5.3-11.7,11.7
	c0,2.9,1.1,5.6,2.9,7.7l0,0c0.2,0.3,0.5,0.5,0.7,0.8l0,0c2.1,2,5,3.3,8.1,3.3c3.2,0,6-1.3,8.1-3.3 M24.1,26L24.1,26L24.1,26
	c0.2-0.3,0.5-0.5,0.7-0.8l0,0 M16,28.3L16,28.3c-6.3,0-11.3-5.5-10.6-11.9c0.5-4.7,4.3-8.6,9-9.3c7.8-1.2,14.4,6.3,11.6,14.3
	C24.6,25.6,20.4,28.3,16,28.3z"/>
<path fill="#FFFFFF" d="M15.5,17.6H9.6v1.1h6.9V9.1h-1.1L15.5,17.6z"/>
</svg>
