<?xml version="1.0" encoding="utf-8"?>
<!-- Generator: Adobe Illustrator 21.1.0, SVG Export Plug-In . SVG Version: 6.00 Build 0)  -->
<svg version="1.1" id="Layer_1" xmlns="http://www.w3.org/2000/svg" xmlns:xlink="http://www.w3.org/1999/xlink" x="0px" y="0px"
	 viewBox="0 0 27 32" enable-background="new 0 0 27 32" xml:space="preserve">
<g id="icomoon-ignore">
</g>
<path fill="#656565" d="M22.5,7.6l3-3V7h1.1V2.8h-4.3v1.1h2.5l-3,3C19,4.3,15.4,2.7,11.4,2.7C7,2.7,2.9,4.6,0,7.9l0.8,0.7
	C0.9,8.5,1,8.4,1.1,8.3l9.5,9.6l-3.6,3.6H4.4l-3.7,3.7h3.4v3.4l3.7-3.7v-2.7l3.6-3.6l9.5,9.5c-0.1,0.1-0.2,0.2-0.3,0.3l0.7,0.8
	c3.3-2.9,5.2-7,5.2-11.4C26.6,13.9,25,10.2,22.5,7.6L22.5,7.6z M6.8,24.4L5.2,26v-1.9H3.3l1.6-1.6h1.9L6.8,24.4L6.8,24.4z M1.9,7.5
	c2.6-2.4,6-3.7,9.5-3.7c3.7,0,7,1.4,9.5,3.7l-9.5,9.5C11.4,17.1,1.9,7.5,1.9,7.5z M21.7,8.3c2.3,2.5,3.7,5.9,3.7,9.5
	c0,3.6-1.3,6.9-3.7,9.5l-9.5-9.5C12.2,17.9,21.7,8.3,21.7,8.3z"/>
</svg>
