<?xml version="1.0" encoding="utf-8"?>
<!-- Generator: Adobe Illustrator 21.1.0, SVG Export Plug-In . SVG Version: 6.00 Build 0)  -->
<svg version="1.1" id="Layer_1" xmlns="http://www.w3.org/2000/svg" xmlns:xlink="http://www.w3.org/1999/xlink" x="0px" y="0px"
	 viewBox="0 0 28 32" enable-background="new 0 0 28 32" xml:space="preserve">
<g id="icomoon-ignore">
</g>
<path fill="#656565" d="M27.5,10.7l-6.3-7.5H6.8l-6.3,7.5L0,11.2l0.4,0.5L14,28.8l14-17.6L27.5,10.7L27.5,10.7z M26.1,10.7H15.4
	l5.3-6.3C20.7,4.3,26.1,10.7,26.1,10.7z M13.9,10.7L8.4,4.3h11L13.9,10.7z M7.1,4.4l5.4,6.2H1.9C1.9,10.7,7.1,4.4,7.1,4.4z
	 M13.4,11.7v14.7L1.8,11.7H13.4z M14.5,26.4V11.7h11.6C26.1,11.7,14.5,26.4,14.5,26.4z"/>
</svg>
