<?xml version="1.0" encoding="utf-8"?>
<!-- Generator: Adobe Illustrator 21.1.0, SVG Export Plug-In . SVG Version: 6.00 Build 0)  -->
<svg version="1.1" id="Layer_1" xmlns="http://www.w3.org/2000/svg" xmlns:xlink="http://www.w3.org/1999/xlink" x="0px" y="0px"
	 viewBox="0 0 29 32" enable-background="new 0 0 29 32" xml:space="preserve">
<g id="icomoon-ignore">
</g>
<path fill="#656565" d="M21.8,12.7c-2,0-4.1,1.8-6.5,2.1v-1c0-2.6,1.9-5.2,5.2-5.2H21c3,0,6-2.3,6.3-6.3h-1C26,5.6,23.5,7.5,21,7.5
	h-0.6c-3.8,0-6.2,3.2-6.2,6.2l0,0l0,0l0,0l0,0v1c-2.5-0.3-4.5-2.1-6.5-2.1C5.5,12.7,0,17,0,25.4c0,4.2,2.9,4.4,3.2,4.4l0,0
	c1.8,0,3.4-0.9,5.5-2.9s2.9-2.6,4.4-2.6c0.6,0,1.3,0,1.5,0h0.1c0.2,0,0.9,0,1.5,0c1.5,0,2.3,0.5,4.4,2.6s3.7,2.9,5.5,2.9l0,0
	c0.4,0,3.2-0.1,3.2-4.4C29.4,17,23.9,12.7,21.8,12.7L21.8,12.7z M26.2,28.7L26.2,28.7L26.2,28.7c-1.5,0-3-0.8-4.8-2.6
	c-2-2-3.1-2.9-5.1-2.9h-3.2c-2,0-3.1,0.9-5.1,2.9c-1.8,1.8-3.2,2.6-4.7,2.6l0,0l0,0c-0.5,0-2.2-0.2-2.2-3.3c0-8,5.2-11.6,6.6-11.6
	c0.8,0,1.7,0.4,2.7,0.9c1.3,0.6,2.7,1.2,4.4,1.2c1.6,0,3.1-0.7,4.3-1.2c1-0.4,1.9-0.9,2.7-0.9c1.3,0,6.6,3.6,6.6,11.6
	C28.3,28.5,26.7,28.7,26.2,28.7z"/>
<path fill="#656565" d="M8.4,16.9h-1V19H5.2v1h2.1v2.1h1V20h2.1v-1h-2V16.9z"/>
<path fill="#656565" d="M19.4,18c-0.9,0-1.6,0.7-1.6,1.6s0.7,1.6,1.6,1.6s1.6-0.7,1.6-1.6S20.3,18,19.4,18z M19.4,20.1
	c-0.3,0-0.5-0.2-0.5-0.5s0.2-0.5,0.5-0.5s0.5,0.2,0.5,0.5C19.9,19.8,19.7,20.1,19.4,20.1z"/>
<path fill="#656565" d="M23.6,19c-0.9,0-1.6,0.7-1.6,1.6s0.7,1.6,1.6,1.6s1.6-0.7,1.6-1.6S24.5,19,23.6,19z M23.6,21.1
	c-0.3,0-0.5-0.2-0.5-0.5s0.2-0.5,0.5-0.5s0.5,0.2,0.5,0.5S23.9,21.1,23.6,21.1z"/>
</svg>
