<?xml version="1.0" encoding="utf-8"?>
<!-- Generator: Adobe Illustrator 21.1.0, SVG Export Plug-In . SVG Version: 6.00 Build 0)  -->
<svg version="1.1" id="Layer_1" xmlns="http://www.w3.org/2000/svg" xmlns:xlink="http://www.w3.org/1999/xlink" x="0px" y="0px"
	 viewBox="0 0 32 32" enable-background="new 0 0 32 32" xml:space="preserve">
<g id="icomoon-ignore">
</g>
<path fill="#FFFFFF" d="M21.9,5.1c3.5,0,6.4,2.9,6.4,6.4c0,1.8-0.8,3.4-2,4.6L16,26.4L5.5,15.9c-1.1-1.1-1.8-2.7-1.8-4.4
	c0-3.5,2.9-6.4,6.4-6.4C12.8,5.1,15,6.7,16,9C17,6.7,19.2,5.1,21.9,5.1L21.9,5.1z M21.9,4c-2.3,0-4.5,1.1-5.9,2.9
	C14.6,5.1,12.5,4,10.1,4C6,4,2.7,7.4,2.7,11.5c0,1.9,0.7,3.8,2.1,5.2L16,28l11.1-11.1c1.5-1.4,2.3-3.3,2.3-5.4C29.3,7.4,26,4,21.9,4
	L21.9,4L21.9,4z"/>
</svg>
