<?xml version="1.0" encoding="utf-8"?>
<!-- Generator: Adobe Illustrator 21.1.0, SVG Export Plug-In . SVG Version: 6.00 Build 0)  -->
<svg version="1.1" xmlns="http://www.w3.org/2000/svg" xmlns:xlink="http://www.w3.org/1999/xlink" x="0px" y="0px"
	 viewBox="0 0 27.8 24" enable-background="new 0 0 27.8 24" xml:space="preserve">
<g id="Layer_1" display="none">
	<g id="icomoon-ignore" display="inline">
	</g>
	<path display="inline" d="M20,1.4c3.5,0,6.4,2.9,6.4,6.4c0,1.8-0.8,3.4-2,4.6L14.1,22.7L3.6,12.2c-1.1-1.1-1.8-2.7-1.8-4.4
		c0-3.5,2.9-6.4,6.4-6.4c2.7,0,4.9,1.6,5.9,3.9C15.1,3,17.3,1.4,20,1.4L20,1.4z M20,0.3c-2.3,0-4.5,1.1-5.9,2.9
		c-1.4-1.8-3.5-2.9-5.9-2.9c-4.1,0-7.4,3.4-7.4,7.5c0,1.9,0.7,3.8,2.1,5.2l11.2,11.3l11.1-11.1c1.5-1.4,2.3-3.3,2.3-5.4
		C27.4,3.7,24.1,0.3,20,0.3L20,0.3L20,0.3z"/>
	<path display="inline" fill="none" stroke="#000000" stroke-miterlimit="10" d="M14.1,23.5"/>
</g>
<g id="Layer_2">
	<path fill="none" stroke="#BE3326" stroke-width="1" stroke-miterlimit="10" d="M13.9,3.8"/>
	<path fill="none" stroke="#BE3326" stroke-width="0.9713" stroke-miterlimit="10" d="M13.9,3.8"/>
	<path fill="none" stroke="#BC1313" stroke-miterlimit="10" d="M25,12.5L14.1,23.3L3.2,12.5c-2-2.5-2.4-5.8-1-8.3
		C3.6,1.7,6.1,1,6.5,0.9c2.7-0.7,5.7,0.5,7.7,2.9C16,1.4,19,0.3,21.8,0.9C22.1,1,24.7,1.7,26,4.1C27.4,6.6,27.1,10,25,12.5z"/>
</g>
</svg>
