<?xml version="1.0" encoding="utf-8"?>
<!-- Generator: Adobe Illustrator 21.1.0, SVG Export Plug-In . SVG Version: 6.00 Build 0)  -->
<svg version="1.1" xmlns="http://www.w3.org/2000/svg" xmlns:xlink="http://www.w3.org/1999/xlink" x="0px" y="0px"
	 viewBox="0 0 800 616" enable-background="new 0 0 800 616" xml:space="preserve">
<g id="Layer_1" display="none">
	<g transform="translate(0.000000,616.000000) scale(0.100000,-0.100000)" display="inline">
		<path d="M167,6146c-55-20-103-61-134-114c-24-40-28-58-28-122c0-51,6-85,17-106c10-18,440-670,957-1450
			c517-781,1364-2059,1882-2841C3379,730,3815,79,3829,66c90-86,252-86,342,0c14,13,450,664,968,1447c518,782,1365,2060,1882,2841
			c517,780,947,1432,957,1450c11,21,17,55,17,106c0,64-4,82-28,122c-31,53-79,94-134,114C7777,6166,223,6166,167,6146z M3521,5643
			c-32-60-1390-2098-1397-2097S756,5592,729,5643c-9,16,60,17,1396,17S3530,5659,3521,5643z M7271,5643c-32-60-1390-2098-1397-2097
			S4506,5592,4479,5643c-9,16,60,17,1396,17S7280,5659,7271,5643z M4625,4513c341-515,694-1048,784-1184l163-249l-782-1180
			c-431-649-786-1180-790-1180s-359,531-790,1180l-782,1180l163,249c465,705,1405,2120,1409,2120C4003,5449,4284,5028,4625,4513z"/>
	</g>
</g>
<g id="Layer_2">
	<g>
		<path fill="none" stroke="#3C409A" stroke-width="20" stroke-miterlimit="10" d="M375.6,549.6L62.4,69c-12.6-19.4,1.3-45,24.4-45
			h626.5c23.1,0,37,25.7,24.4,45L424.4,549.6C412.9,567.2,387.1,567.2,375.6,549.6z"/>
	</g>
	<path fill="none" stroke="#3C409A" stroke-width="20" stroke-miterlimit="10" d="M216.5,305.5L61.2,67.3C49.1,48.7,62.4,24,84.7,24
		H400L216.5,305.5z"/>
	<path fill="none" stroke="#3C409A" stroke-width="20" stroke-miterlimit="10" d="M583.5,305.5L400,24h315.3
		c22.2,0,35.6,24.7,23.5,43.3L583.5,305.5z"/>
</g>
</svg>
