<?xml version="1.0" encoding="utf-8"?>
<!-- Generator: Adobe Illustrator 21.1.0, SVG Export Plug-In . SVG Version: 6.00 Build 0)  -->
<svg version="1.1" id="Layer_1" xmlns="http://www.w3.org/2000/svg" xmlns:xlink="http://www.w3.org/1999/xlink" x="0px" y="0px"
	 viewBox="0 0 32 32" enable-background="new 0 0 32 32" xml:space="preserve">
<g id="icomoon-ignore">
</g>
<path fill="#FFFFFF" d="M16,6.4c-5.8,0-10.4,3.7-16,9.6c4.8,5.1,8.9,9.6,16,9.6s12.4-5.7,16-9.5C28.3,11.7,23.1,6.4,16,6.4L16,6.4z
	 M16,24.5c-6.3,0-10.2-3.9-14.5-8.5c5.2-5.4,9.3-8.5,14.5-8.5c6.2,0,11,4.4,14.6,8.6C27,19.7,22.3,24.5,16,24.5L16,24.5z"/>
<path fill="#FFFFFF" d="M16,9.6c-3.5,0-6.4,2.9-6.4,6.4s2.9,6.4,6.4,6.4s6.4-2.9,6.4-6.4S19.5,9.6,16,9.6z M16,21.3
	c-2.9,0-5.3-2.4-5.3-5.3s2.4-5.3,5.3-5.3s5.3,2.4,5.3,5.3S18.9,21.3,16,21.3z"/>
<path fill="#FFFFFF" d="M16,12.3c-2.1,0-3.7,1.7-3.7,3.7s1.7,3.7,3.7,3.7s3.7-1.7,3.7-3.7S18.1,12.3,16,12.3z M16,18.7
	c-1.5,0-2.7-1.2-2.7-2.7s1.2-2.7,2.7-2.7s2.7,1.2,2.7,2.7S17.5,18.7,16,18.7z"/>
</svg>
