<?xml version="1.0" encoding="utf-8"?>
<!-- Generator: Adobe Illustrator 21.1.0, SVG Export Plug-In . SVG Version: 6.00 Build 0)  -->
<svg version="1.1" id="Layer_1" xmlns="http://www.w3.org/2000/svg" xmlns:xlink="http://www.w3.org/1999/xlink" x="0px" y="0px"
	 viewBox="0 0 26 32" enable-background="new 0 0 26 32" xml:space="preserve">
<g id="icomoon-ignore">
</g>
<path fill="#656565" d="M0,28.2l13.9-13.9l0.8,0.8L0.7,29C0.7,29,0,28.2,0,28.2z"/>
<path fill="#656565" d="M10,10.5h4.3v1.1H10V10.5z"/>
<path fill="#656565" d="M21.7,10.5H26v1.1h-4.3V10.5z"/>
<path fill="#656565" d="M17.4,14.7h1.1V19h-1.1C17.4,19,17.4,14.7,17.4,14.7z"/>
<path fill="#656565" d="M17.4,3h1.1v4.3h-1.1V3z"/>
<path fill="#656565" d="M24,5.7l-3,3L20.2,8l3-3C23.2,5,24,5.7,24,5.7z"/>
<path fill="#656565" d="M23.2,17l-3-3l0.8-0.8l3,3L23.2,17z"/>
<path fill="#656565" d="M15,8.7l-3-3L12.7,5l3,3C15.7,8,15,8.7,15,8.7z"/>
</svg>
