<?xml version="1.0" encoding="utf-8"?>
<!-- Generator: Adobe Illustrator 21.1.0, SVG Export Plug-In . SVG Version: 6.00 Build 0)  -->
<svg version="1.1" id="Layer_1" xmlns="http://www.w3.org/2000/svg" xmlns:xlink="http://www.w3.org/1999/xlink" x="0px" y="0px"
	 viewBox="0 0 28 32" enable-background="new 0 0 28 32" xml:space="preserve">
<g id="icomoon-ignore">
</g>
<path fill="#656565" d="M22.3,14.8L22.3,14.8L11.9,4.4l-0.2,0.2V4.3c0-1.8-1.4-3.2-3.2-3.2S5.3,2.5,5.3,4.3v6.7l-4.4,4.4
	c-1.2,1.2-1.2,3.2,0,4.4l6,6c0.6,0.6,1.4,0.9,2.2,0.9s1.6-0.3,2.2-0.9l7.6-7.7h6.6L22.3,14.8L22.3,14.8z M6.4,4.3
	c0-1.2,1-2.1,2.1-2.1s2.1,1,2.1,2.1v1.3L6.4,9.9L6.4,4.3L6.4,4.3z M18.6,17.1l-8,8c-0.4,0.4-0.9,0.6-1.5,0.6c-0.5,0-1.1-0.2-1.4-0.6
	l-6-6c-0.8-0.8-0.8-2.1,0-2.9l9-9v6.7h1.1V6.1l0.2-0.2L23,17.1H18.6z"/>
<path fill="#656565" d="M28.2,27c-0.3-2.9-3.4-6.7-3.4-6.7s-3.1,3.9-3.4,6.8c0,0.2,0,0.3,0,0.4c0,1.9,1.5,3.5,3.5,3.5
	s3.5-1.5,3.5-3.5C28.3,27.3,28.3,27.1,28.2,27L28.2,27z M24.8,29.9c-1.3,0-2.4-1.1-2.4-2.4c0-0.1,0-0.2,0-0.3l0,0l0,0
	c0.2-1.6,1.4-3.7,2.3-5.1c1,1.4,2.2,3.5,2.4,5.1c0,0.1,0,0.2,0,0.3C27.2,28.8,26.1,29.9,24.8,29.9z"/>
</svg>
