<?xml version="1.0" encoding="utf-8"?>
<!-- Generator: Adobe Illustrator 21.1.0, SVG Export Plug-In . SVG Version: 6.00 Build 0)  -->
<svg version="1.1" id="Layer_1" xmlns="http://www.w3.org/2000/svg" xmlns:xlink="http://www.w3.org/1999/xlink" x="0px" y="0px"
	 viewBox="0 0 32 32" enable-background="new 0 0 32 32" xml:space="preserve">
<g id="icomoon-ignore">
</g>
<path fill="#656565" d="M23.1,1.6H8.9C8.1,1.6,7.5,2.3,7.5,3V29c0,0.8,0.6,1.4,1.4,1.4h14.2c0.8,0,1.4-0.6,1.4-1.4V3
	C24.5,2.3,23.9,1.6,23.1,1.6z M23.5,29c0,0.2-0.2,0.4-0.4,0.4H8.9c-0.2,0-0.4-0.2-0.4-0.4v-5h14.9L23.5,29L23.5,29z M23.5,22.9H8.5
	v-17h14.9V22.9z M23.5,4.8H8.5V3.1c0-0.2,0.2-0.4,0.4-0.4h14.2c0.2,0,0.4,0.2,0.4,0.4L23.5,4.8L23.5,4.8z"/>
<path fill="#656565" d="M14.4,26.1h3.2v1.1h-3.2C14.4,27.2,14.4,26.1,14.4,26.1z"/>
</svg>
