<?xml version="1.0" encoding="utf-8"?>
<!-- Generator: Adobe Illustrator 21.1.0, SVG Export Plug-In . SVG Version: 6.00 Build 0)  -->
<svg version="1.1" id="Layer_1" xmlns:serif="http://www.serif.com/"
	 xmlns="http://www.w3.org/2000/svg" xmlns:xlink="http://www.w3.org/1999/xlink" x="0px" y="0px" viewBox="0 0 24 24"
	 style="enable-background:new 0 0 24 24;" xml:space="preserve">
<g id="XMLID_1_">
	<g>
		<path d="M12,0c6.6,0,12,5.4,12,12s-5.4,12-12,12S0,18.6,0,12S5.4,0,12,0z M18.5,6.9c0-0.2,0-0.3-0.1-0.4c-0.1-0.1-0.3-0.1-0.5-0.1
			c-2.4,0.9-10,3.7-13.1,4.9c-0.2,0.1-0.3,0.3-0.3,0.5s0.2,0.4,0.3,0.4c1.4,0.4,3.2,1,3.2,1s0.9,2.6,1.3,3.9
			c0.1,0.2,0.2,0.3,0.4,0.3c0.2,0,0.3,0,0.5-0.1c0.7-0.7,1.8-1.7,1.8-1.7s2.1,1.5,3.3,2.4c0.2,0.1,0.4,0.2,0.6,0.1
			c0.2-0.1,0.4-0.3,0.4-0.5C16.8,15.1,18,9.1,18.5,6.9z"/>
		<path d="M15.9,8.6C13.8,10.6,10,14,10,14L9.8,16l-1-3.2c0,0,4.4-2.8,6.9-4.4c0.1-0.1,0.2,0,0.2,0C16,8.5,16,8.6,15.9,8.6z"/>
	</g>
	<g>
	</g>
</g>
</svg>
