<?xml version="1.0" standalone="no"?>
<!DOCTYPE svg PUBLIC "-//W3C//DTD SVG 20010904//EN"
 "http://www.w3.org/TR/2001/REC-SVG-20010904/DTD/svg10.dtd">
<svg version="1.0" xmlns="http://www.w3.org/2000/svg"
 width="700.000000pt" height="700.000000pt" viewBox="0 0 700.000000 700.000000"
 preserveAspectRatio="xMidYMid meet">
<metadata>
Created by potrace 1.11, written by Peter Selinger 2001-2013
</metadata>
<g transform="translate(0.000000,700.000000) scale(0.100000,-0.100000)"
fill="#000000" stroke="none">
<path d="M3390 6118 c-58 -99 -115 -199 -128 -221 -13 -23 -35 -59 -48 -79
-13 -21 -24 -39 -24 -42 0 -2 -60 -107 -133 -232 -74 -126 -167 -287 -208
-357 -41 -70 -82 -142 -93 -160 -53 -91 -381 -656 -396 -682 -9 -16 -84 -145
-165 -285 -138 -237 -305 -525 -345 -595 -9 -17 -50 -87 -90 -155 -40 -69
-103 -177 -140 -240 -74 -129 -276 -477 -290 -500 -11 -18 -99 -169 -128 -220
-10 -19 -43 -75 -72 -125 -29 -49 -64 -110 -78 -135 -14 -24 -49 -84 -78 -133
-30 -49 -54 -91 -54 -93 0 -4 -70 -123 -90 -154 -6 -8 -13 -22 -17 -30 -4 -8
-34 -60 -66 -115 -33 -55 -69 -118 -82 -140 -12 -22 -77 -134 -144 -249 -66
-115 -119 -211 -116 -214 2 -2 -6 -13 -18 -23 -12 -10 -19 -18 -16 -19 3 0 88
30 190 66 101 36 195 69 209 74 25 8 189 66 455 162 77 27 151 53 165 58 52
16 376 131 395 140 16 7 49 18 75 25 3 1 12 5 20 8 14 6 181 65 730 259 140
49 298 105 350 124 52 19 195 69 316 112 l222 79 108 -40 c60 -21 138 -49 174
-62 36 -13 175 -63 310 -110 258 -91 531 -187 665 -235 44 -16 152 -54 240
-85 88 -31 228 -81 310 -110 83 -29 233 -83 335 -118 102 -36 244 -86 315
-112 72 -26 148 -52 170 -60 36 -12 161 -56 403 -143 45 -16 85 -26 88 -21 3
5 -42 88 -99 186 -58 98 -113 194 -124 213 -11 19 -57 97 -102 174 -44 76 -81
140 -81 142 0 2 -15 27 -33 56 -19 29 -46 76 -62 103 -15 28 -81 142 -148 255
-66 112 -127 218 -137 235 -9 17 -49 84 -87 150 -333 571 -413 709 -413 713 0
3 -6 13 -14 21 -7 9 -25 36 -38 61 -14 25 -112 194 -218 375 -106 182 -203
348 -215 370 -13 22 -62 108 -110 190 -48 83 -96 164 -105 180 -10 17 -126
217 -260 445 -133 228 -251 431 -262 450 -62 107 -324 557 -405 693 -51 88
-93 161 -93 164 0 2 -13 23 -28 46 -15 23 -34 54 -41 69 -8 15 -19 25 -24 21
-6 -3 -7 -1 -3 5 4 7 1 21 -6 31 -13 18 -23 4 -118 -161z m1341 -3255 c13 -16
12 -17 -3 -4 -17 13 -22 21 -14 21 2 0 10 -8 17 -17z m290 -300 c13 -16 12
-17 -3 -4 -17 13 -22 21 -14 21 2 0 10 -8 17 -17z m74 -73 c10 -11 16 -20 13
-20 -3 0 -13 9 -23 20 -10 11 -16 20 -13 20 3 0 13 -9 23 -20z m90 -90 c10
-11 16 -20 13 -20 -3 0 -13 9 -23 20 -10 11 -16 20 -13 20 3 0 13 -9 23 -20z
m96 -97 c13 -16 12 -17 -3 -4 -10 7 -18 15 -18 17 0 8 8 3 21 -13z m63 -69 c3
-8 2 -12 -4 -9 -6 3 -10 10 -10 16 0 14 7 11 14 -7z m146 -149 c13 -14 21 -25
18 -25 -2 0 -15 11 -28 25 -13 14 -21 25 -18 25 2 0 15 -11 28 -25z m115 -115
c27 -27 47 -50 44 -50 -3 0 -27 23 -54 50 -27 28 -47 50 -44 50 3 0 27 -22 54
-50z m80 -80 c10 -11 16 -20 13 -20 -3 0 -13 9 -23 20 -10 11 -16 20 -13 20 3
0 13 -9 23 -20z m46 -47 c13 -16 12 -17 -3 -4 -10 7 -18 15 -18 17 0 8 8 3 21
-13z m77 -88 c-3 -3 -9 2 -12 12 -6 14 -5 15 5 6 7 -7 10 -15 7 -18z m67 -65
c10 -11 16 -20 13 -20 -3 0 -13 9 -23 20 -10 11 -16 20 -13 20 3 0 13 -9 23
-20z m66 -67 c13 -16 12 -17 -3 -4 -10 7 -18 15 -18 17 0 8 8 3 21 -13z m119
-119 c52 -53 86 -90 75 -83 -21 14 -182 179 -174 179 2 0 47 -43 99 -96z m130
-129 c13 -14 21 -25 18 -25 -2 0 -15 11 -28 25 -13 14 -21 25 -18 25 2 0 15
-11 28 -25z m104 -114 c-2 -3 -12 3 -22 13 -16 17 -16 18 5 5 12 -7 20 -15 17
-18z m181 -181 c77 -77 137 -140 135 -140 -3 0 -68 63 -145 140 -77 77 -137
140 -135 140 3 0 68 -63 145 -140z"/>
</g>
</svg>
