<?xml version="1.0" standalone="no"?>
<!DOCTYPE svg PUBLIC "-//W3C//DTD SVG 20010904//EN"
 "http://www.w3.org/TR/2001/REC-SVG-20010904/DTD/svg10.dtd">
<svg version="1.0" xmlns="http://www.w3.org/2000/svg"
 width="700.000000pt" height="700.000000pt" viewBox="0 0 700.000000 700.000000"
 preserveAspectRatio="xMidYMid meet">
<metadata>
Created by potrace 1.11, written by Peter Selinger 2001-2013
</metadata>
<g transform="translate(0.000000,700.000000) scale(0.100000,-0.100000)"
fill="#000000" stroke="none">
<path d="M3435 6140 c-16 -11 -665 -655 -1441 -1432 -1532 -1534 -1444 -1440
-1412 -1517 12 -30 2790 -2819 2851 -2863 38 -27 96 -27 134 0 33 24 2816
2808 2836 2837 20 29 27 63 20 99 -4 25 -292 318 -1422 1450 -835 836 -1429
1424 -1448 1432 -44 19 -82 17 -118 -6z"/>
</g>
</svg>
