<?xml version="1.0" encoding="utf-8"?>
<!-- Generator: Adobe Illustrator 21.1.0, SVG Export Plug-In . SVG Version: 6.00 Build 0)  -->
<svg version="1.1" id="Capa_1" xmlns="http://www.w3.org/2000/svg" xmlns:xlink="http://www.w3.org/1999/xlink" x="0px" y="0px"
	 viewBox="0 0 95.3 95.3" style="enable-background:new 0 0 95.3 95.3;" xml:space="preserve">
<g>
	<g>
		<path style="fill:#F9CC74;" d="M64.8,51.4c2.3,0.7,4.7,1,7,1c3.5,0,6.5-0.8,8.8-1.8c-2.2,8.1-7.5,22-18,23.5c-1,0.1-1.8,0.8-2,1.8
			l-2.3,8.2c-0.2,0.7-0.1,1.4,0.3,2c0.4,0.6,1,1,1.8,1.1s1.6,0.2,2.4,0.2c12.6,0,25.2-13.2,30.4-32.1c3.1-11.1,4-27.7-3.6-38.2
			c-4.3-5.9-10.5-9-18.5-9.3H71c-9.9,0-18.7,6.7-21.3,16.2c-1.6,5.7-0.9,11.7,2,16.9C54.4,46,59.1,49.7,64.8,51.4z"/>
		<path style="fill:#F9CC74;" d="M2.9,40.9c2.9,5.1,7.6,8.8,13.3,10.5c2.3,0.7,4.7,1,7,1c3.5,0,6.5-0.8,8.8-1.8
			c-2.2,8.1-7.5,22-18,23.5c-1,0.1-1.8,0.8-2,1.8l-2.3,8.2c-0.2,0.7-0.1,1.4,0.3,2c0.4,0.6,1,1,1.8,1.1s1.6,0.2,2.4,0.2
			c12.6,0,25.2-13.2,30.4-32.1c3.1-11.1,4-27.7-3.6-38.2c-4.3-5.9-10.5-9-18.5-9.3h-0.1C12.5,7.8,3.7,14.5,1.1,24
			C-0.8,29.8,0,35.8,2.9,40.9z"/>
	</g>
</g>
</svg>
