<svg xmlns="http://www.w3.org/2000/svg" width="62" height="61" viewBox="0 0 62 61">
  <metadata><?xpacket begin="﻿" id="W5M0MpCehiHzreSzNTczkc9d"?>
<x:xmpmeta xmlns:x="adobe:ns:meta/" x:xmptk="Adobe XMP Core 5.6-c138 79.159824, 2016/09/14-01:09:01        ">
   <rdf:RDF xmlns:rdf="http://www.w3.org/1999/02/22-rdf-syntax-ns#">
      <rdf:Description rdf:about=""/>
   </rdf:RDF>
</x:xmpmeta>
                                                                                                    
                                                                                                    
                                                                                                    
                                                                                                    
                                                                                                    
                                                                                                    
                                                                                                    
                                                                                                    
                                                                                                    
                                                                                                    
                                                                                                    
                                                                                                    
                                                                                                    
                                                                                                    
                                                                                                    
                                                                                                    
                                                                                                    
                                                                                                    
                                                                                                    
                                                                                                    
                           
<?xpacket end="w"?></metadata>
<defs>
    <style>
      .cls-1 {
        fill: #ff9711;
        fill-rule: evenodd;
      }
    </style>
  </defs>
  <path id="Forma_1" data-name="Forma 1" class="cls-1" d="M116.262,1263.74c-0.512.13-1.033,0.24-1.55,0.34a2.457,2.457,0,0,0-.982,4.44,2.486,2.486,0,0,0,1.89.41c0.616-.11,1.237-0.24,1.846-0.39A2.474,2.474,0,1,0,116.262,1263.74Zm18.43-33.11a2.478,2.478,0,0,0,.929,1.25,2.512,2.512,0,0,0,2.221.32,2.463,2.463,0,0,0,1.583-3.12c-0.2-.59-0.416-1.18-0.649-1.76a2.513,2.513,0,0,0-3.24-1.38,2.474,2.474,0,0,0-1.388,3.22C134.344,1229.64,134.527,1230.14,134.692,1230.63Zm-10.332,29.58c-0.439.29-.893,0.57-1.35,0.83a2.457,2.457,0,0,0-.192,4.16,2.5,2.5,0,0,0,2.682.12c0.544-.31,1.084-0.64,1.608-0.98a2.455,2.455,0,0,0,.7-3.42A2.508,2.508,0,0,0,124.36,1260.21Zm16.614-22.68a2.493,2.493,0,0,0-4.981.2c0.021,0.52.027,1.05,0.014,1.57a2.462,2.462,0,0,0,1.058,2.07,2.511,2.511,0,0,0,1.379.45,2.48,2.48,0,0,0,2.546-2.41C141,1238.78,141,1238.15,140.974,1237.53Zm-6.688,16.19a2.507,2.507,0,0,0-3.49.49c-0.316.42-.65,0.83-0.991,1.23a2.454,2.454,0,0,0,.282,3.48,1.814,1.814,0,0,0,.183.14,2.505,2.505,0,0,0,3.331-.42c0.407-.47.8-0.96,1.182-1.46A2.458,2.458,0,0,0,134.286,1253.72Zm3.663-8.93a2.5,2.5,0,0,0-3.123,1.62c-0.158.49-.332,0.99-0.521,1.48a2.459,2.459,0,0,0,.892,2.9,2.524,2.524,0,0,0,.55.29,2.492,2.492,0,0,0,3.216-1.43c0.223-.58.431-1.18,0.619-1.77A2.462,2.462,0,0,0,137.949,1244.79Zm-32.562,19.31a25.721,25.721,0,0,1-6.392-2.02l-0.071-.03c-0.478-.23-0.954-0.47-1.417-0.72H97.5a26.184,26.184,0,0,1-2.48-1.53,25.665,25.665,0,0,1,.109-42.22c0.03-.03.06-0.04,0.089-0.07a26.251,26.251,0,0,1,29.2-.23l-1.947,2.79c-0.542.78-.209,1.34,0.739,1.26l8.458-.75a1.387,1.387,0,0,0,1.262-1.81l-2.272-8.11c-0.254-.91-0.905-1.02-1.447-0.24l-1.952,2.79a31.036,31.036,0,0,0-22.554-4.75c-0.8.14-1.584,0.3-2.36,0.5h-0.016l-0.089.03A30.669,30.669,0,0,0,85.2,1220.31c-0.036.04-.073,0.08-0.107,0.12-0.141.19-.282,0.39-0.419,0.58-0.225.32-.446,0.64-0.658,0.96-0.027.04-.047,0.08-0.07,0.12a30.261,30.261,0,0,0-4.911,17.97c0,0.02,0,.04,0,0.06,0.028,0.62.078,1.25,0.145,1.86a1.035,1.035,0,0,0,.019.12c0.07,0.62.157,1.25,0.266,1.87a30.378,30.378,0,0,0,8.673,16.53,0.143,0.143,0,0,1,.032.04s0.008,0,.012.01a31.382,31.382,0,0,0,16.329,8.41A2.47,2.47,0,1,0,105.387,1264.1Zm3.082-45.33a2.005,2.005,0,0,0-2.017,2v19.91l18.374,9.41a2.037,2.037,0,0,0,.924.22,2.012,2.012,0,0,0,1.793-1.08,1.987,1.987,0,0,0-.865-2.69l-16.194-8.3v-17.47A2,2,0,0,0,108.469,1218.77Z" transform="translate(-79 -1208)"/>
</svg>
