<svg xmlns="http://www.w3.org/2000/svg" width="23.844" height="13.6" viewBox="0 0 23.844 13.6">
  <metadata><?xpacket begin="﻿" id="W5M0MpCehiHzreSzNTczkc9d"?>
<x:xmpmeta xmlns:x="adobe:ns:meta/" x:xmptk="Adobe XMP Core 5.6-c138 79.159824, 2016/09/14-01:09:01        ">
   <rdf:RDF xmlns:rdf="http://www.w3.org/1999/02/22-rdf-syntax-ns#">
      <rdf:Description rdf:about=""/>
   </rdf:RDF>
</x:xmpmeta>
                                                                                                    
                                                                                                    
                                                                                                    
                                                                                                    
                                                                                                    
                                                                                                    
                                                                                                    
                                                                                                    
                                                                                                    
                                                                                                    
                                                                                                    
                                                                                                    
                                                                                                    
                                                                                                    
                                                                                                    
                                                                                                    
                                                                                                    
                                                                                                    
                                                                                                    
                                                                                                    
                           
<?xpacket end="w"?></metadata>
<defs>
    <style>
      .cls-1 {
        fill: #fff;
        fill-rule: evenodd;
      }
    </style>
  </defs>
  <path id="Forma_1" data-name="Forma 1" class="cls-1" d="M120.843,10989.4a28.134,28.134,0,0,0-2.335-2.3,1.284,1.284,0,0,1-.185-2c0.626-.8,1.3-1.7,1.929-2.6a8.836,8.836,0,0,0,1.5-2.6,0.654,0.654,0,0,0-.613-1h-4.111a0.857,0.857,0,0,0-.887.6c-0.222.6-.451,1.1-0.716,1.7a13.983,13.983,0,0,1-2.21,3.4,0.842,0.842,0,0,1-.783.4,1.4,1.4,0,0,1-.554-1.2l0-4.3a1.011,1.011,0,0,0-.84-1.1h-3.923a1.151,1.151,0,0,0-1.065.6c-0.162.2-.21,0.3,0.121,0.4a1.25,1.25,0,0,1,1.115,1.2,13.022,13.022,0,0,1,.056,3.1,3.074,3.074,0,0,1-.2.9,0.546,0.546,0,0,1-.9.3,3.913,3.913,0,0,1-.871-1,20.749,20.749,0,0,1-2.3-4.3,1.029,1.029,0,0,0-.943-0.7h-3.4c-0.682,0-.885.4-0.607,1a46.649,46.649,0,0,0,4.4,7.9,11.725,11.725,0,0,0,3.343,3.1,9.515,9.515,0,0,0,4.967,1.1,0.97,0.97,0,0,0,1.107-1.1,3.412,3.412,0,0,1,.365-1.6,0.731,0.731,0,0,1,1.156-.3,2.006,2.006,0,0,1,.625.5c0.462,0.5.908,1.1,1.388,1.6a2.974,2.974,0,0,0,2.211.9h3.471a0.931,0.931,0,0,0,.529-1.4A9.881,9.881,0,0,0,120.843,10989.4Z" transform="translate(-98 -10978.4)"/>
</svg>
