<svg xmlns="http://www.w3.org/2000/svg" width="25" height="16.3" viewBox="0 0 25 16.3">
  <metadata><?xpacket begin="﻿" id="W5M0MpCehiHzreSzNTczkc9d"?>
<x:xmpmeta xmlns:x="adobe:ns:meta/" x:xmptk="Adobe XMP Core 5.6-c138 79.159824, 2016/09/14-01:09:01        ">
   <rdf:RDF xmlns:rdf="http://www.w3.org/1999/02/22-rdf-syntax-ns#">
      <rdf:Description rdf:about=""/>
   </rdf:RDF>
</x:xmpmeta>
                                                                                                    
                                                                                                    
                                                                                                    
                                                                                                    
                                                                                                    
                                                                                                    
                                                                                                    
                                                                                                    
                                                                                                    
                                                                                                    
                                                                                                    
                                                                                                    
                                                                                                    
                                                                                                    
                                                                                                    
                                                                                                    
                                                                                                    
                                                                                                    
                                                                                                    
                                                                                                    
                           
<?xpacket end="w"?></metadata>
<defs>
    <style>
      .cls-1 {
        fill: #fff;
        fill-rule: evenodd;
      }
    </style>
  </defs>
  <path class="cls-1" d="M56.983,10774.4a1.33,1.33,0,0,0-1.281-1.4H33.279a1.326,1.326,0,0,0-1.279,1.4l0.017,13.5a1.261,1.261,0,0,0,.376.9,1.094,1.094,0,0,0,.9.4H55.722a1.326,1.326,0,0,0,1.279-1.4Zm-2.687,0-9.795,7.2-9.813-7.2H54.3Zm-5.653,8.6,5.809,4.8-19.921.1,5.844-4.9a0.637,0.637,0,0,0,.114-0.9,0.656,0.656,0,0,0-.9-0.2l-6.294,5.3-0.015-12.2,10.857,8a0.433,0.433,0,0,0,.73,0l10.835-8,0.017,12.2-6.292-5.3a0.656,0.656,0,0,0-.9.2A0.638,0.638,0,0,0,48.643,10783Z" transform="translate(-32 -10773)"/>
</svg>
