<svg xmlns="http://www.w3.org/2000/svg" width="20" height="20" viewBox="0 0 20 20">
  <metadata><?xpacket begin="﻿" id="W5M0MpCehiHzreSzNTczkc9d"?>
<x:xmpmeta xmlns:x="adobe:ns:meta/" x:xmptk="Adobe XMP Core 5.6-c138 79.159824, 2016/09/14-01:09:01        ">
   <rdf:RDF xmlns:rdf="http://www.w3.org/1999/02/22-rdf-syntax-ns#">
      <rdf:Description rdf:about=""/>
   </rdf:RDF>
</x:xmpmeta>
                                                                                                    
                                                                                                    
                                                                                                    
                                                                                                    
                                                                                                    
                                                                                                    
                                                                                                    
                                                                                                    
                                                                                                    
                                                                                                    
                                                                                                    
                                                                                                    
                                                                                                    
                                                                                                    
                                                                                                    
                                                                                                    
                                                                                                    
                                                                                                    
                                                                                                    
                                                                                                    
                           
<?xpacket end="w"?></metadata>
<defs>
    <style>
      .cls-1 {
        fill: #fff;
        fill-rule: evenodd;
      }
    </style>
  </defs>
  <path id="Forma_1" data-name="Forma 1" class="cls-1" d="M45,10728.2a8.75,8.75,0,1,1-8.75,8.8,8.819,8.819,0,0,1,8.75-8.8m0-1.2a10,10,0,1,0,10,10,10.015,10.015,0,0,0-10-10h0Zm5.575,13.3-0.056-.1a1.52,1.52,0,0,0-.967-0.9l-1.478-.4a1.2,1.2,0,0,0-1.266.3l-0.535.5a5.546,5.546,0,0,1-3.993-4l0.535-.5a1.527,1.527,0,0,0,.331-1.3l-0.4-1.5a1.4,1.4,0,0,0-.914-0.9l-0.169-.1a1.412,1.412,0,0,0-1.25.3l-0.8.8a2.129,2.129,0,0,0-.234.6,9.563,9.563,0,0,0,2.766,6.8,9.448,9.448,0,0,0,6.764,2.7,2.3,2.3,0,0,0,.575-0.2l0.8-.8A1.442,1.442,0,0,0,50.575,10740.3Z" transform="translate(-35 -10727)"/>
</svg>
