<svg xmlns="http://www.w3.org/2000/svg" width="23.906" height="24" viewBox="0 0 23.906 24">
  <metadata><?xpacket begin="﻿" id="W5M0MpCehiHzreSzNTczkc9d"?>
<x:xmpmeta xmlns:x="adobe:ns:meta/" x:xmptk="Adobe XMP Core 5.6-c138 79.159824, 2016/09/14-01:09:01        ">
   <rdf:RDF xmlns:rdf="http://www.w3.org/1999/02/22-rdf-syntax-ns#">
      <rdf:Description rdf:about=""/>
   </rdf:RDF>
</x:xmpmeta>
                                                                                                    
                                                                                                    
                                                                                                    
                                                                                                    
                                                                                                    
                                                                                                    
                                                                                                    
                                                                                                    
                                                                                                    
                                                                                                    
                                                                                                    
                                                                                                    
                                                                                                    
                                                                                                    
                                                                                                    
                                                                                                    
                                                                                                    
                                                                                                    
                                                                                                    
                                                                                                    
                           
<?xpacket end="w"?></metadata>
<defs>
    <style>
      .cls-1 {
        fill: #fff;
        fill-rule: evenodd;
      }
    </style>
  </defs>
  <path id="Forma_1" data-name="Forma 1" class="cls-1" d="M260.153,10973h17.778a3.035,3.035,0,0,1,3.07,3.1v17.8a3.035,3.035,0,0,1-3.07,3.1H260.153a3.035,3.035,0,0,1-3.07-3.1v-17.8a3.035,3.035,0,0,1,3.07-3.1h0Zm14.353,2.7a1.012,1.012,0,0,0-1.076,1v2.6a1.1,1.1,0,0,0,1.076,1.1h2.7a1.1,1.1,0,0,0,1.076-1.1v-2.6a1.012,1.012,0,0,0-1.076-1h-2.7Zm3.792,7.4h-2.106a7.623,7.623,0,0,1,.307,2.1,7.438,7.438,0,0,1-14.868,0,7.623,7.623,0,0,1,.307-2.1h-2.2v10.2a0.926,0.926,0,0,0,.951.9h16.655a0.926,0.926,0,0,0,.951-0.9v-10.2h0Zm-9.233-2.8a4.652,4.652,0,1,0,4.8,4.6A4.732,4.732,0,0,0,269.065,10980.3Z" transform="translate(-257.094 -10973)"/>
</svg>
