<svg xmlns="http://www.w3.org/2000/svg" width="19.656" height="19.9" viewBox="0 0 19.656 19.9">
  <metadata><?xpacket begin="﻿" id="W5M0MpCehiHzreSzNTczkc9d"?>
<x:xmpmeta xmlns:x="adobe:ns:meta/" x:xmptk="Adobe XMP Core 5.6-c138 79.159824, 2016/09/14-01:09:01        ">
   <rdf:RDF xmlns:rdf="http://www.w3.org/1999/02/22-rdf-syntax-ns#">
      <rdf:Description rdf:about=""/>
   </rdf:RDF>
</x:xmpmeta>
                                                                                                    
                                                                                                    
                                                                                                    
                                                                                                    
                                                                                                    
                                                                                                    
                                                                                                    
                                                                                                    
                                                                                                    
                                                                                                    
                                                                                                    
                                                                                                    
                                                                                                    
                                                                                                    
                                                                                                    
                                                                                                    
                                                                                                    
                                                                                                    
                                                                                                    
                                                                                                    
                           
<?xpacket end="w"?></metadata>
<defs>
    <style>
      .cls-1 {
        fill: #fff;
        fill-rule: evenodd;
      }
    </style>
  </defs>
  <path id="Forma_1" data-name="Forma 1" class="cls-1" d="M44.393,10815.1a9.951,9.951,0,1,0,9.822,10A9.932,9.932,0,0,0,44.393,10815.1Zm0,17.8a7.776,7.776,0,0,1-7.732-7.8,7.734,7.734,0,1,1,15.464,0A7.776,7.776,0,0,1,44.393,10832.9Zm5.119-8.1H45.1v-5.4a0.809,0.809,0,0,0-1.617,0v6.2a0.833,0.833,0,0,0,.809.8h5.222a0.833,0.833,0,0,0,.809-0.8A0.77,0.77,0,0,0,49.511,10824.8Z" transform="translate(-34.563 -10815.1)"/>
</svg>
