<svg xmlns="http://www.w3.org/2000/svg" width="52" height="61" viewBox="0 0 52 61">
  <metadata><?xpacket begin="﻿" id="W5M0MpCehiHzreSzNTczkc9d"?>
<x:xmpmeta xmlns:x="adobe:ns:meta/" x:xmptk="Adobe XMP Core 5.6-c138 79.159824, 2016/09/14-01:09:01        ">
   <rdf:RDF xmlns:rdf="http://www.w3.org/1999/02/22-rdf-syntax-ns#">
      <rdf:Description rdf:about=""/>
   </rdf:RDF>
</x:xmpmeta>
                                                                                                    
                                                                                                    
                                                                                                    
                                                                                                    
                                                                                                    
                                                                                                    
                                                                                                    
                                                                                                    
                                                                                                    
                                                                                                    
                                                                                                    
                                                                                                    
                                                                                                    
                                                                                                    
                                                                                                    
                                                                                                    
                                                                                                    
                                                                                                    
                                                                                                    
                                                                                                    
                           
<?xpacket end="w"?></metadata>
<defs>
    <style>
      .cls-1 {
        fill: #ff9711;
        fill-rule: evenodd;
      }
    </style>
  </defs>
  <path class="cls-1" d="M116.267,1071.69c-4.216-1.64-6.261,2.41-6.261,2.41-1.575-3.74-7.137-3.9-8.6-.07a6.676,6.676,0,0,0,.885,6.33,36.6,36.6,0,0,0,4.813,5.02c0.964,0.89,1.928,1.77,2.892,2.66,1.567-1.35,3.1-2.75,4.618-4.16,2.208-2.06,4.2-4.02,4.389-7.22C119.133,1074.56,118.339,1072.5,116.267,1071.69Zm11.543-24.64V1041h-3.727v6.05H119.8V1041h-3.728v6.05h-4.282V1041h-3.727v6.05h-4.282V1041h-3.728v6.05H95.772V1041H92.044v6.05H84v45.66a9.293,9.293,0,0,0,9.272,9.29h33.456a9.293,9.293,0,0,0,9.272-9.29v-45.66h-8.19Zm4.462,45.66a5.553,5.553,0,0,1-5.544,5.55H93.272a5.554,5.554,0,0,1-5.544-5.55v-29.18h44.544v29.18h0Zm0-32.91H87.728v-9.01h4.317v3.24h3.728v-3.24h4.282v3.24h3.728v-3.24h4.282v3.24h3.728v-3.24h4.281v3.24H119.8v-3.24h4.282v3.24h3.728v-3.24h4.461v9.01Z" transform="translate(-84 -1041)"/>
</svg>
