<?xml version="1.0" encoding="utf-8"?>
<!-- Generator: Adobe Illustrator 21.1.0, SVG Export Plug-In . SVG Version: 6.00 Build 0)  -->
<svg version="1.1" id="Layer_1" xmlns="http://www.w3.org/2000/svg" xmlns:xlink="http://www.w3.org/1999/xlink" x="0px" y="0px"
	 viewBox="0 0 580 160" enable-background="new 0 0 580 160" xml:space="preserve">
<path fill="#F9A147" d="M11.6,139L83.1,16L58.8,90.7L11.6,139z"/>
<path fill="#F37C21" d="M83.1,113.7L11.6,139l47.2-48.3L83.1,113.7z"/>
<path fill="#F05823" d="M83.1,113.7V16L58.8,90.7L83.1,113.7z"/>
<path fill="#E12726" d="M154.7,139L83.1,16l24.3,74.6L154.7,139z"/>
<path fill="#F05823" d="M83.1,113.7l71.5,25.3l-47.2-48.3L83.1,113.7z"/>
<path fill="#F37C21" d="M83.1,113.7V16l24.3,74.6L83.1,113.7z"/>
<g>
	<path fill="#FFFFFF" d="M204.2,105.5L204.2,105.5c0.1,2.3-0.7,4.2-2.2,5.5s-3.5,2-6,2c-2.6,0-4.6-0.9-6.2-2.8s-2.4-4.2-2.4-7.2
		v-3.7c0-2.9,0.8-5.3,2.4-7.2s3.6-2.8,6.2-2.8c2.5,0,4.5,0.7,6,2c1.5,1.3,2.2,3.1,2.2,5.4l0,0.1h-1.8c0-1.9-0.6-3.3-1.7-4.3
		c-1.1-1-2.7-1.6-4.7-1.6c-2,0-3.6,0.8-4.8,2.3c-1.2,1.6-1.8,3.6-1.8,6v3.8c0,2.5,0.6,4.5,1.8,6s2.8,2.3,4.8,2.3
		c2,0,3.6-0.5,4.7-1.5s1.7-2.5,1.7-4.4L204.2,105.5L204.2,105.5z M206.7,95.6h7.1v6.8h4.9c2,0,3.5,0.5,4.6,1.4
		c1.1,0.9,1.7,2.2,1.7,3.7c0,1.5-0.6,2.8-1.7,3.7c-1.1,1-2.6,1.4-4.6,1.4H212V97.2h-5.2L206.7,95.6L206.7,95.6z M213.9,104.1v7h4.9
		c1.5,0,2.6-0.3,3.3-1s1.1-1.5,1.1-2.5c0-1-0.4-1.8-1.1-2.5c-0.7-0.7-1.8-1-3.3-1C218.7,104.1,213.9,104.1,213.9,104.1z M235.6,113
		c-2.2,0-4-0.8-5.4-2.3c-1.4-1.6-2.1-3.6-2.1-6v-0.9c0-2.5,0.7-4.5,2.1-6.1c1.4-1.6,3.1-2.4,5.2-2.4c2.1,0,3.7,0.7,4.8,2
		c1.1,1.3,1.7,3.1,1.7,5.4v1.5h-11.9v0.5c0,1.9,0.5,3.6,1.5,4.9c1,1.3,2.3,1.9,4.1,1.9c1,0,2-0.2,2.9-0.5c0.9-0.3,1.6-0.8,2.2-1.4
		l0.8,1.3c-0.6,0.6-1.4,1.2-2.4,1.6S237,113,235.6,113L235.6,113z M235.5,96.9c-1.5,0-2.6,0.5-3.6,1.6s-1.5,2.4-1.6,4l0,0.1h9.8
		v-0.4c0-1.5-0.4-2.8-1.2-3.8C238.1,97.4,237,96.9,235.5,96.9L235.5,96.9z M255.2,110L255.2,110l6.8-14.4h2.3v17.1h-1.9V98.9l-0.1,0
		l-6.5,13.8h-1.3L248,98.6l-0.1,0v14.1H246V95.6h2.5C248.4,95.6,255.2,110,255.2,110z M273.6,104.9h-2.2v7.8h-1.9V95.6h1.9v7.6h2.1
		l6.7-7.6h2.3l0,0.1l-7.4,8.2l8.1,8.7l0,0.1H281L273.6,104.9L273.6,104.9z M297.4,112.7c-0.1-0.5-0.2-1-0.3-1.5
		c-0.1-0.4-0.1-0.9-0.1-1.3c-0.6,0.9-1.4,1.7-2.5,2.3s-2.3,0.9-3.7,0.9c-1.7,0-3-0.4-3.9-1.3c-0.9-0.9-1.4-2.1-1.4-3.6
		s0.7-2.8,2-3.7s3.1-1.4,5.2-1.4h4.2v-2.1c0-1.2-0.4-2.2-1.2-2.9s-1.9-1-3.3-1c-1.3,0-2.3,0.3-3.1,0.9s-1.2,1.4-1.2,2.4h-1.8l0-0.1
		c-0.1-1.3,0.5-2.4,1.7-3.4c1.2-1,2.7-1.5,4.6-1.5s3.4,0.5,4.5,1.4c1.1,1,1.7,2.3,1.7,4.1v8.4c0,0.6,0,1.2,0.1,1.8
		c0.1,0.6,0.2,1.1,0.3,1.7L297.4,112.7L297.4,112.7z M291.1,111.4c1.5,0,2.7-0.3,3.8-1c1.1-0.7,1.8-1.6,2.2-2.7v-3.3h-4.2
		c-1.5,0-2.8,0.4-3.8,1.1c-1,0.7-1.5,1.6-1.5,2.6c0,1,0.3,1.7,1,2.3C289.1,111.1,290,111.4,291.1,111.4L291.1,111.4z M324.9,112.7
		H323V97.2h-9.2v15.5h-1.9V95.6h13V112.7z M340.7,112.7c-0.1-0.5-0.2-1-0.3-1.5c-0.1-0.4-0.1-0.9-0.1-1.3c-0.6,0.9-1.4,1.7-2.5,2.3
		s-2.3,0.9-3.7,0.9c-1.7,0-3-0.4-3.9-1.3c-0.9-0.9-1.4-2.1-1.4-3.6s0.7-2.8,2-3.7s3.1-1.4,5.2-1.4h4.2v-2.1c0-1.2-0.4-2.2-1.2-2.9
		s-1.9-1-3.3-1c-1.3,0-2.3,0.3-3.1,0.9s-1.2,1.4-1.2,2.4h-1.8l0-0.1c-0.1-1.3,0.5-2.4,1.7-3.4c1.2-1,2.7-1.5,4.6-1.5
		s3.4,0.5,4.5,1.4c1.1,1,1.7,2.3,1.7,4.1v8.4c0,0.6,0,1.2,0.1,1.8c0.1,0.6,0.2,1.1,0.3,1.7L340.7,112.7L340.7,112.7z M334.4,111.4
		c1.5,0,2.7-0.3,3.8-1c1.1-0.7,1.8-1.6,2.2-2.7v-3.3h-4.2c-1.5,0-2.8,0.4-3.8,1.1c-1,0.7-1.5,1.6-1.5,2.6c0,1,0.3,1.7,1,2.3
		C332.4,111.1,333.3,111.4,334.4,111.4L334.4,111.4z M360.3,112.7h-1.9v-7.8h-9.2v7.8h-1.9V95.6h1.9v7.7h9.2v-7.7h1.9V112.7z
		 M364.2,103.9c0-2.5,0.7-4.6,2.1-6.2c1.4-1.6,3.2-2.4,5.5-2.4c2.3,0,4.1,0.8,5.5,2.4c1.4,1.6,2.1,3.7,2.1,6.2v0.5
		c0,2.5-0.7,4.6-2.1,6.2c-1.4,1.6-3.2,2.4-5.5,2.4c-2.3,0-4.1-0.8-5.5-2.4s-2.1-3.7-2.1-6.2L364.2,103.9L364.2,103.9z M366.1,104.4
		c0,2,0.5,3.6,1.5,5s2.4,2,4.2,2c1.8,0,3.1-0.7,4.1-2c1-1.3,1.5-3,1.5-5v-0.5c0-1.9-0.5-3.6-1.5-5c-1-1.4-2.4-2-4.2-2
		s-3.2,0.7-4.2,2c-1,1.4-1.5,3-1.5,5V104.4z M397,104.6c0,2.6-0.6,4.6-1.7,6.1c-1.2,1.5-2.8,2.3-4.8,2.3c-1.2,0-2.2-0.2-3.1-0.7
		c-0.9-0.4-1.6-1.1-2.2-1.9v8.8h-1.9V95.6h1.5l0.3,2.7c0.6-0.9,1.3-1.7,2.2-2.2s2-0.8,3.2-0.8c2.1,0,3.7,0.8,4.8,2.5
		c1.2,1.6,1.7,3.8,1.7,6.6L397,104.6L397,104.6z M395.2,104.3c0-2.2-0.4-3.9-1.3-5.3c-0.9-1.4-2.1-2.1-3.8-2.1
		c-1.3,0-2.3,0.3-3.1,0.9c-0.8,0.6-1.4,1.4-1.8,2.3v8.3c0.4,0.9,1.1,1.7,1.9,2.2c0.8,0.5,1.8,0.8,3,0.8c1.7,0,2.9-0.6,3.8-1.9
		c0.9-1.2,1.3-2.9,1.3-4.9V104.3z M412.1,112.7c-0.1-0.5-0.2-1-0.3-1.5c-0.1-0.4-0.1-0.9-0.1-1.3c-0.6,0.9-1.4,1.7-2.5,2.3
		s-2.3,0.9-3.7,0.9c-1.7,0-3-0.4-3.9-1.3c-0.9-0.9-1.4-2.1-1.4-3.6s0.7-2.8,2-3.7s3.1-1.4,5.2-1.4h4.2v-2.1c0-1.2-0.4-2.2-1.2-2.9
		s-1.9-1-3.3-1c-1.3,0-2.3,0.3-3.1,0.9s-1.2,1.4-1.2,2.4h-1.8l0-0.1c-0.1-1.3,0.5-2.4,1.7-3.4c1.2-1,2.7-1.5,4.6-1.5
		s3.4,0.5,4.5,1.4c1.1,1,1.7,2.3,1.7,4.1v8.4c0,0.6,0,1.2,0.1,1.8c0.1,0.6,0.2,1.1,0.3,1.7L412.1,112.7L412.1,112.7z M405.8,111.4
		c1.5,0,2.7-0.3,3.8-1c1.1-0.7,1.8-1.6,2.2-2.7v-3.3h-4.2c-1.5,0-2.8,0.4-3.8,1.1c-1,0.7-1.5,1.6-1.5,2.6c0,1,0.3,1.7,1,2.3
		C403.8,111.1,404.7,111.4,405.8,111.4L405.8,111.4z M428.1,110L428.1,110l6.8-14.4h2.3v17.1h-1.9V98.9l-0.1,0l-6.5,13.8h-1.3
		l-6.6-14.1l-0.1,0v14.1h-1.9V95.6h2.5C421.3,95.6,428.1,110,428.1,110z M198.6,127.1h1.9v17.1h-1.9v-14l-0.1,0l-9.1,14h-1.9v-17.1
		h1.9V141l0.1,0C189.5,141,198.6,127.1,198.6,127.1z M213.5,144.2v-17.1h6.3c2.1,0,3.8,0.4,5,1.1c1.2,0.8,1.8,1.9,1.8,3.4
		c0,0.9-0.3,1.6-0.8,2.3c-0.5,0.7-1.3,1.1-2.2,1.4c1.1,0.2,2,0.7,2.7,1.4c0.7,0.8,1,1.6,1,2.6c0,1.5-0.6,2.7-1.7,3.5
		s-2.7,1.2-4.6,1.2L213.5,144.2L213.5,144.2z M215.4,134.7h4.6c1.5,0,2.7-0.3,3.5-0.8c0.8-0.5,1.2-1.3,1.2-2.3c0-1-0.4-1.8-1.2-2.3
		c-0.8-0.5-2-0.7-3.6-0.7h-4.4L215.4,134.7L215.4,134.7z M215.4,136.3v6.3h5.5c1.4,0,2.5-0.3,3.3-0.8c0.8-0.5,1.2-1.3,1.2-2.4
		c0-0.9-0.4-1.7-1.2-2.3c-0.8-0.6-1.9-0.8-3.3-0.8H215.4L215.4,136.3z M242.5,127.1h1.9v17.1h-1.9v-14l-0.1,0l-9.1,14h-1.9v-17.1
		h1.9V141l0.1,0C233.4,141,242.5,127.1,242.5,127.1z M263.2,136.1c0,2.6-0.6,4.6-1.7,6.1c-1.2,1.5-2.8,2.3-4.8,2.3
		c-1.2,0-2.2-0.2-3.1-0.7c-0.9-0.4-1.6-1.1-2.2-1.9v8.9h-1.9v-23.7h1.5l0.3,2.7c0.6-0.9,1.3-1.7,2.2-2.2s2-0.8,3.2-0.8
		c2.1,0,3.7,0.8,4.8,2.5c1.2,1.6,1.7,3.8,1.7,6.5C263.2,135.8,263.2,136.1,263.2,136.1z M261.3,135.8c0-2.2-0.4-3.9-1.3-5.3
		c-0.9-1.4-2.1-2.1-3.8-2.1c-1.3,0-2.3,0.3-3.1,0.9c-0.8,0.6-1.4,1.4-1.8,2.3v8.3c0.4,0.9,1.1,1.7,1.9,2.2c0.8,0.5,1.8,0.8,3,0.8
		c1.7,0,2.9-0.6,3.8-1.9c0.9-1.2,1.3-2.9,1.3-4.9L261.3,135.8L261.3,135.8z M279.9,128.7h-6.2v15.5h-1.9v-15.5h-6v-1.6h14.1
		L279.9,128.7L279.9,128.7z M288.5,139.5l0.6,2h0.1l5.2-14.5h2.1l-7.4,19.8c-0.4,1.2-1,2.1-1.7,3c-0.7,0.8-1.7,1.2-3.1,1.2
		c-0.2,0-0.5,0-0.8-0.1c-0.2,0-0.5-0.1-0.7-0.1l0.2-1.6c0.1,0,0.3,0,0.6,0.1c0.3,0,0.5,0,0.6,0c0.8,0,1.5-0.3,2-0.9
		c0.5-0.6,0.9-1.3,1.3-2.3l0.9-2.3l-6.6-16.9h2.1L288.5,139.5L288.5,139.5z M310.1,144.2c-0.1-0.5-0.2-1-0.3-1.5
		c-0.1-0.4-0.1-0.9-0.1-1.3c-0.6,0.9-1.4,1.7-2.5,2.3s-2.3,0.9-3.7,0.9c-1.7,0-3-0.4-3.9-1.3c-0.9-0.9-1.4-2.1-1.4-3.6
		c0-1.5,0.7-2.8,2-3.7s3.1-1.4,5.2-1.4h4.2v-2.1c0-1.2-0.4-2.2-1.2-2.9s-1.9-1-3.3-1c-1.3,0-2.3,0.3-3.1,0.9s-1.2,1.4-1.2,2.4h-1.8
		l0-0.1c-0.1-1.3,0.5-2.4,1.7-3.4c1.2-1,2.7-1.5,4.6-1.5s3.4,0.5,4.5,1.4c1.1,1,1.7,2.3,1.7,4.1v8.4c0,0.6,0,1.2,0.1,1.8
		c0.1,0.6,0.2,1.1,0.3,1.7L310.1,144.2L310.1,144.2z M303.8,142.8c1.5,0,2.7-0.3,3.8-1c1.1-0.7,1.8-1.6,2.2-2.7v-3.3h-4.2
		c-1.5,0-2.8,0.4-3.8,1.1c-1,0.7-1.5,1.6-1.5,2.6c0,1,0.3,1.7,1,2.3C301.8,142.5,302.7,142.8,303.8,142.8L303.8,142.8z M329.7,127.1
		v17.1h-1.9v-15.5h-7.3v5.9c0,3.4-0.4,5.8-1.2,7.3c-0.8,1.5-2.1,2.3-4,2.3h-0.7l0-1.7l0.6,0c1.2,0,2-0.6,2.5-1.7s0.8-3.2,0.8-6.1
		v-7.6C318.7,127.1,329.7,127.1,329.7,127.1z M336.5,133.9h4.9c2,0,3.5,0.5,4.6,1.4c1.1,0.9,1.7,2.2,1.7,3.7c0,1.5-0.6,2.8-1.7,3.7
		c-1.1,1-2.6,1.4-4.6,1.4h-6.8v-17.1h1.9V133.9z M336.5,135.5v7h4.9c1.5,0,2.6-0.3,3.3-1c0.7-0.7,1.1-1.5,1.1-2.5
		c0-1-0.4-1.8-1.1-2.5c-0.7-0.7-1.8-1-3.3-1C341.4,135.5,336.5,135.5,336.5,135.5z M364.8,144.2h-1.9v-7.8h-9.2v7.8h-1.9v-17.1h1.9
		v7.7h9.2v-7.7h1.9V144.2z M372.2,133.9h4.9c2,0,3.5,0.5,4.6,1.4c1.1,0.9,1.7,2.2,1.7,3.7c0,1.5-0.6,2.8-1.7,3.7
		c-1.1,1-2.6,1.4-4.6,1.4h-6.8v-17.1h1.9V133.9z M372.2,135.5v7h4.9c1.5,0,2.6-0.3,3.3-1c0.7-0.7,1.1-1.5,1.1-2.5
		c0-1-0.4-1.8-1.1-2.5c-0.7-0.7-1.8-1-3.3-1C377,135.5,372.2,135.5,372.2,135.5z M388.9,144.2H387v-17.1h1.9V144.2z M399.6,134.1
		l4.6-7h2.2l-5.8,8.4l6,8.7h-2.2l-4.9-7.3l-4.9,7.3h-2.2l6.1-8.7l-5.8-8.4h2.2L399.6,134.1L399.6,134.1z M424.1,131.6
		c1.7,0,2.9-0.4,3.8-1.2c0.9-0.8,1.3-1.9,1.3-3.2c0-1.4-0.4-2.5-1.2-3.4c-0.8-0.9-2-1.3-3.6-1.3c-1.5,0-2.7,0.4-3.7,1.3
		c-1,0.9-1.5,2-1.5,3.4h-1.8l0-0.1c-0.1-1.8,0.6-3.3,1.9-4.5c1.3-1.2,3-1.8,5-1.8c2,0,3.7,0.6,4.9,1.7c1.2,1.1,1.8,2.7,1.8,4.7
		c0,1.1-0.3,2.2-1,3.1s-1.6,1.6-2.7,2.1c1.3,0.4,2.3,1.1,3.1,2.1c0.7,1,1.1,2.1,1.1,3.5c0,2.1-0.6,3.7-1.9,4.8s-3,1.7-5.1,1.7
		c-1.9,0-3.7-0.6-5.2-1.7c-1.5-1.2-2.2-2.7-2.2-4.7l0-0.1h1.8c0,1.4,0.5,2.6,1.6,3.6s2.4,1.4,4,1.4c1.6,0,2.9-0.4,3.8-1.3
		c0.9-0.9,1.4-2.1,1.4-3.6c0-1.6-0.5-2.8-1.4-3.6c-1-0.8-2.3-1.2-4.1-1.2H422v-1.6L424.1,131.6L424.1,131.6z M435.8,142.6
		c0.8,0,1.5-0.8,2-2.4c0.5-1.6,0.8-3.9,0.9-6.9l0.4-6.2h10.3v15.5h1.6v7.2H449v-5.6h-12.9v5.6h-1.8v-7.2L435.8,142.6L435.8,142.6z
		 M440.6,133.2c-0.1,2.3-0.3,4.2-0.6,5.7c-0.3,1.5-0.7,2.8-1.3,3.6h8.8v-13.7h-6.6L440.6,133.2z M475.4,128.7h-6.2v15.5h-1.9v-15.5
		h-6v-1.6h14.1V128.7z M484.1,139.5l0.6,2h0.1l5.2-14.5h2.1l-7.4,19.8c-0.4,1.2-1,2.1-1.7,3c-0.7,0.8-1.7,1.2-3.1,1.2
		c-0.2,0-0.5,0-0.8-0.1c-0.2,0-0.5-0.1-0.7-0.1l0.2-1.6c0.1,0,0.3,0,0.6,0.1c0.3,0,0.5,0,0.6,0c0.8,0,1.5-0.3,2-0.9
		c0.5-0.6,0.9-1.3,1.3-2.3l0.9-2.3l-6.6-16.9h2.1L484.1,139.5L484.1,139.5z M508.9,136.1c0,2.6-0.6,4.6-1.7,6.1s-2.8,2.3-4.8,2.3
		c-1.2,0-2.2-0.2-3.1-0.7s-1.6-1.1-2.2-1.9v8.9h-1.9v-23.7h1.5l0.3,2.7c0.6-0.9,1.3-1.7,2.2-2.2s2-0.8,3.2-0.8
		c2.1,0,3.7,0.8,4.8,2.5c1.2,1.6,1.7,3.8,1.7,6.5C508.9,135.8,508.9,136.1,508.9,136.1z M507,135.8c0-2.2-0.4-3.9-1.3-5.3
		c-0.9-1.4-2.1-2.1-3.8-2.1c-1.3,0-2.3,0.3-3.1,0.9c-0.8,0.6-1.4,1.4-1.8,2.3v8.3c0.4,0.9,1.1,1.7,1.9,2.2c0.8,0.5,1.8,0.8,3,0.8
		c1.7,0,2.9-0.6,3.8-1.9c0.9-1.2,1.3-2.9,1.3-4.9V135.8z M512,135.4c0-2.5,0.7-4.6,2.1-6.2c1.4-1.6,3.2-2.4,5.5-2.4
		c2.3,0,4.1,0.8,5.5,2.4c1.4,1.6,2.1,3.7,2.1,6.2v0.5c0,2.5-0.7,4.6-2.1,6.2c-1.4,1.6-3.2,2.4-5.5,2.4c-2.3,0-4.1-0.8-5.5-2.4
		c-1.4-1.6-2.1-3.7-2.1-6.2L512,135.4L512,135.4z M513.9,135.9c0,2,0.5,3.6,1.5,5c1,1.3,2.4,2,4.2,2c1.8,0,3.1-0.7,4.1-2
		c1-1.3,1.5-3,1.5-5v-0.5c0-1.9-0.5-3.6-1.5-5c-1-1.4-2.4-2-4.2-2c-1.8,0-3.2,0.7-4.2,2c-1,1.4-1.5,3-1.5,5L513.9,135.9L513.9,135.9
		z M531.2,144.2v-17.1h6.3c2.1,0,3.8,0.4,5,1.1c1.2,0.8,1.8,1.9,1.8,3.4c0,0.9-0.3,1.6-0.8,2.3c-0.5,0.7-1.3,1.1-2.2,1.4
		c1.1,0.2,2,0.7,2.7,1.4c0.7,0.8,1,1.6,1,2.6c0,1.5-0.6,2.7-1.7,3.5c-1.1,0.8-2.7,1.2-4.6,1.2L531.2,144.2L531.2,144.2z
		 M533.1,134.7h4.6c1.5,0,2.7-0.3,3.5-0.8c0.8-0.5,1.2-1.3,1.2-2.3c0-1-0.4-1.8-1.2-2.3c-0.8-0.5-2-0.7-3.6-0.7h-4.4L533.1,134.7
		L533.1,134.7z M533.1,136.3v6.3h5.5c1.4,0,2.5-0.3,3.3-0.8c0.8-0.5,1.2-1.3,1.2-2.4c0-0.9-0.4-1.7-1.2-2.3
		c-0.8-0.6-1.9-0.8-3.3-0.8H533.1z"/>
	<g>
		<path fill="#FFFFFF" d="M206.1,69.6c-5.8,0-11.1-2.3-15.1-6.1c-5.1-4.9-5.5-10.7-5.5-24.2c0-11.9-0.3-18.4,5.5-24.2
			c3.9-3.9,9.3-6.1,15-6.1c7,0,11.8,2.9,16.8,7.5l-3,3c-4.2-4-7.7-6.5-13.7-6.5c-7,0-14.2,4.7-15.3,12c-0.4,2.4-0.8,4.5-0.8,14.3
			v2.5c0,11.6,0.9,15.5,4.6,19.2c3,3,7,4.6,11.5,4.6c6,0,9.5-2.4,13.7-6.5l3,3C217.6,66.9,213.3,69.6,206.1,69.6z M269.6,63.5
			c-3.9,3.9-9.3,6.1-14.9,6.1c-5.6,0-11-2.2-14.9-6.1c-5.2-5.2-5.5-11-5.5-24.2c0-11-0.4-18.3,5.5-24.2c3.9-3.9,9.3-6.1,14.9-6.1
			s11,2.2,14.9,6.1c6.2,6.2,5.5,15.1,5.5,24.2C275.1,53.7,274.6,58.6,269.6,63.5z M270.6,37.9c0-12.7-0.8-16.5-4.6-20.3
			c-2.9-2.9-7-4.6-11.3-4.6c-4.4,0-8.4,1.7-11.3,4.6c-4.2,4.2-4.6,9.6-4.6,21.7v2.6c0,11.4,0.9,15.4,4.6,19.1
			c2.9,2.9,7,4.6,11.3,4.6c4.4,0,8.4-1.7,11.3-4.6c4.7-4.7,4.6-11.2,4.6-20.9C270.6,40.1,270.6,37.9,270.6,37.9z M291.2,69.1V9.4
			h4.5v55.7h31.7v4H291.2z M368.9,63.5c-3.9,3.9-9.3,6.1-14.9,6.1c-5.6,0-11-2.2-14.9-6.1c-5.2-5.2-5.5-11-5.5-24.2
			c0-11-0.4-18.3,5.5-24.2c3.9-3.9,9.3-6.1,14.9-6.1c5.6,0,11,2.2,14.9,6.1c6.2,6.2,5.5,15.1,5.5,24.2
			C374.4,53.7,373.8,58.6,368.9,63.5z M369.9,37.9c0-12.7-0.8-16.5-4.6-20.3c-2.9-2.9-7-4.6-11.3-4.6c-4.4,0-8.4,1.7-11.3,4.6
			c-4.2,4.2-4.6,9.6-4.6,21.7v2.6c0,11.4,0.9,15.4,4.6,19.1c2.9,2.9,7,4.6,11.3,4.6c4.4,0,8.4-1.7,11.3-4.6
			c4.7-4.7,4.6-11.2,4.6-20.9C369.9,40.1,369.9,37.9,369.9,37.9z M425.7,69.1l-14.3-27.5H395v27.5h-4.5V9.4h22.7
			c10.4,0,17.1,6.3,17.1,16c0,4.3-1.3,8-3.6,10.7c-2.8,3.3-6,4.4-10.1,5.4L431,69.1H425.7L425.7,69.1z M412.7,37.6
			c8.3,0,13.2-4.4,13.2-12.1s-4.9-12.1-13.2-12.1H395v24.2H412.7z M474.4,41.5c2.4,2.8,3.5,6.2,3.5,10.4c0,10.8-7.5,17.8-19,17.8
			c-5.8,0-10.8-1.8-14.2-5.1c-3.6-3.5-4.4-7.6-4.8-12.5h10.9c0.3,5.1,3.2,7.8,8.1,7.8s8.1-3.2,8.1-8.3c0-5.1-3.2-8.2-8.4-8.2H457
			v-9.5h1.6c4.8,0,7.5-2.8,7.5-7.5c0-4.6-2.9-7.6-7.3-7.6c-4.3,0-6.9,2.5-7.4,7.2h-10.9c0.3-3.4,0.5-4.9,1.4-7
			c2.7-6.3,9.1-10.1,16.9-10.1c10.6,0,18.2,7.1,18.2,17.2c0,3.8-1,6.8-3.1,9.2c-1,1.2-1.8,1.8-3.8,2.9
			C472.4,39.5,473.2,40.2,474.4,41.5L474.4,41.5z M507.4,33.3c9.1,0,15.8,7.5,15.8,17.8c0,11.1-7.5,18.5-18.7,18.5
			c-11.1,0-18.5-7.3-18.5-18.2c0-4.6,1.1-8.1,5-16.2l12.6-25.8h11.9l-12.4,24.7C504.6,33.5,505.7,33.3,507.4,33.3z M504.6,42.4
			c-4.7,0-7.7,3.4-7.7,8.7c0,5.3,3,8.7,7.7,8.7c4.6,0,7.7-3.4,7.7-8.6C512.3,45.9,509.3,42.4,504.6,42.4z M550.3,69.6
			c-10.7,0-18.2-7.3-18.2-17.8V26.7c0-10.5,7.5-17.8,18.2-17.8c10.7,0,18.1,7.3,18.1,17.8v25.2C568.4,62.3,561,69.6,550.3,69.6z
			 M550.3,59.8c4.4,0,7.2-3.2,7.2-8.1V26.9c0-4.9-2.9-8.1-7.2-8.1S543,22,543,26.9v24.9C543,56.6,545.8,59.8,550.3,59.8z"/>
	</g>
</g>
</svg>
