<svg version="1.2" baseProfile="tiny" xmlns="http://www.w3.org/2000/svg" width="805.493" height="140" viewBox="0 0 805.493 140" overflow="scroll"><path fill="#F9A147" d="M1.042 130.055L72.557 7.084l-24.31 74.649z"/><path fill="#F37C21" d="M72.557 104.742L1.042 130.055l47.205-48.322z"/><path fill="#F05823" d="M72.557 104.742V7.084l-24.31 74.649z"/><path fill="#E12726" d="M144.073 130.055L72.557 7.084l24.311 74.649z"/><path fill="#F05823" d="M72.557 104.742l71.516 25.313-47.205-48.322z"/><path fill="#F37C21" d="M72.557 104.742V7.084l24.311 74.649z"/><g fill="#000"><path d="M193.83 114.734l.032.095c.042 2.255-.695 4.057-2.212 5.405s-3.508 2.022-5.973 2.022c-2.56 0-4.625-.925-6.195-2.773s-2.354-4.243-2.354-7.183v-3.745c0-2.929.785-5.322 2.354-7.182s3.635-2.789 6.195-2.789c2.497 0 4.496.658 5.997 1.975 1.501 1.317 2.23 3.129 2.188 5.437l-.032.095h-1.77c0-1.854-.566-3.3-1.699-4.338-1.132-1.037-2.694-1.557-4.685-1.557-2.013 0-3.627.78-4.844 2.339-1.217 1.56-1.825 3.556-1.825 5.989v3.776c0 2.466.608 4.476 1.825 6.029s2.831 2.33 4.844 2.33c1.991 0 3.553-.505 4.685-1.517s1.699-2.481 1.699-4.409h1.77zM196.343 104.826h7.127v6.843h4.883c1.97 0 3.505.475 4.606 1.422 1.101.948 1.651 2.176 1.651 3.683 0 1.517-.551 2.755-1.651 3.713-1.101.959-2.637 1.438-4.606 1.438h-6.779v-15.486h-5.23v-1.613zm7.127 8.455v7.048h4.883c1.464 0 2.557-.335 3.279-1.004s1.083-1.509 1.083-2.521c0-.969-.363-1.799-1.09-2.489-.727-.689-1.817-1.034-3.271-1.034h-4.884zM225.261 122.257c-2.212 0-4.009-.782-5.389-2.347-1.38-1.564-2.07-3.574-2.07-6.029v-.869c0-2.465.698-4.498 2.094-6.1 1.396-1.601 3.126-2.401 5.191-2.401 2.075 0 3.679.666 4.812 1.999 1.132 1.333 1.699 3.126 1.699 5.381v1.469h-11.899v.521c0 1.949.492 3.566 1.478 4.852.985 1.286 2.347 1.928 4.085 1.928 1.043 0 2.001-.171 2.876-.513.875-.343 1.601-.804 2.181-1.383l.806 1.296c-.601.632-1.388 1.156-2.363 1.572s-2.142.624-3.501.624zm-.174-16.135c-1.454 0-2.65.521-3.587 1.564s-1.485 2.365-1.643 3.967l.047.095h9.797v-.396c0-1.517-.398-2.768-1.193-3.753-.795-.984-1.935-1.477-3.421-1.477zM244.793 119.27h.095l6.748-14.443h2.339v17.099h-1.896v-13.812l-.095-.016-6.479 13.827h-1.343l-6.589-14.111-.095.016v14.096h-1.896v-17.099h2.481l6.73 14.443zM263.267 114.087h-2.165v7.838h-1.912v-17.099h1.912v7.586h2.118l6.748-7.586h2.275l.032.079-7.364 8.218 8.139 8.707-.047.095h-2.355l-7.381-7.838zM287.017 121.925a27.9 27.9 0 0 1-.261-1.549 9.96 9.96 0 0 1-.087-1.327c-.59.927-1.417 1.693-2.481 2.299-1.064.606-2.286.909-3.666.909-1.675 0-2.974-.445-3.896-1.336-.922-.89-1.382-2.099-1.382-3.626s.669-2.766 2.007-3.714 3.076-1.422 5.215-1.422h4.203v-2.118c0-1.222-.387-2.181-1.161-2.876s-1.868-1.043-3.279-1.043c-1.296 0-2.341.316-3.137.948s-1.193 1.428-1.193 2.387h-1.754l-.031-.095c-.063-1.286.487-2.416 1.651-3.39 1.164-.975 2.684-1.462 4.559-1.462s3.382.479 4.52 1.438c1.138.959 1.707 2.334 1.707 4.125v8.406c0 .601.034 1.186.103 1.755.068.568.182 1.132.34 1.69h-1.977zm-6.289-1.343c1.454 0 2.712-.346 3.777-1.035 1.064-.69 1.786-1.578 2.165-2.663v-3.271h-4.219c-1.538 0-2.808.366-3.808 1.099-1.001.732-1.501 1.614-1.501 2.646 0 .97.319 1.749.956 2.339.636.59 1.513.885 2.63.885zM314.482 121.925h-1.896v-15.471h-9.229v15.471h-1.896v-17.099h13.021v17.099zM330.3 121.925a27.9 27.9 0 0 1-.261-1.549 9.96 9.96 0 0 1-.087-1.327c-.59.927-1.417 1.693-2.481 2.299-1.064.606-2.286.909-3.666.909-1.675 0-2.974-.445-3.896-1.336-.922-.89-1.382-2.099-1.382-3.626s.669-2.766 2.007-3.714 3.076-1.422 5.215-1.422h4.203v-2.118c0-1.222-.387-2.181-1.161-2.876s-1.868-1.043-3.279-1.043c-1.296 0-2.341.316-3.137.948s-1.193 1.428-1.193 2.387h-1.754l-.031-.095c-.063-1.286.487-2.416 1.651-3.39 1.164-.975 2.684-1.462 4.559-1.462s3.382.479 4.52 1.438c1.138.959 1.707 2.334 1.707 4.125v8.406c0 .601.034 1.186.103 1.755.068.568.182 1.132.34 1.69H330.3zm-6.289-1.343c1.454 0 2.712-.346 3.777-1.035 1.064-.69 1.786-1.578 2.165-2.663v-3.271h-4.219c-1.538 0-2.808.366-3.808 1.099-1.001.732-1.501 1.614-1.501 2.646 0 .97.319 1.749.956 2.339.636.59 1.514.885 2.63.885zM349.88 121.925h-1.896v-7.838h-9.213v7.838h-1.896v-17.099h1.896v7.664h9.213v-7.664h1.896v17.099zM353.83 113.123c0-2.518.69-4.583 2.07-6.194 1.38-1.612 3.208-2.418 5.483-2.418 2.286 0 4.119.806 5.499 2.418 1.38 1.611 2.07 3.677 2.07 6.194v.521c0 2.528-.688 4.596-2.062 6.202-1.375 1.606-3.2 2.41-5.476 2.41-2.297 0-4.135-.804-5.515-2.41s-2.07-3.674-2.07-6.202v-.521zm1.897.522c0 1.98.5 3.645 1.501 4.993s2.396 2.022 4.188 2.022c1.759 0 3.142-.674 4.148-2.022 1.006-1.349 1.509-3.013 1.509-4.993v-.521c0-1.949-.506-3.604-1.517-4.962-1.011-1.359-2.402-2.039-4.172-2.039s-3.155.68-4.156 2.039c-1.001 1.358-1.501 3.013-1.501 4.962v.521zM386.668 113.85c0 2.561-.58 4.602-1.738 6.124-1.159 1.522-2.755 2.283-4.788 2.283-1.19 0-2.236-.227-3.137-.68a5.77 5.77 0 0 1-2.205-1.928v8.85h-1.896v-23.673h1.454l.348 2.671c.569-.948 1.306-1.683 2.212-2.204.906-.521 1.97-.782 3.192-.782 2.054 0 3.661.819 4.82 2.457 1.159 1.639 1.738 3.821 1.738 6.55v.332zm-1.897-.332c0-2.17-.432-3.939-1.295-5.31-.864-1.369-2.128-2.054-3.793-2.054-1.253 0-2.278.3-3.073.9-.796.601-1.398 1.38-1.81 2.339v8.28c.442.928 1.069 1.657 1.88 2.188.811.532 1.823.798 3.034.798 1.654 0 2.91-.621 3.769-1.864.858-1.243 1.288-2.892 1.288-4.946v-.331zM401.743 121.925a27.9 27.9 0 0 1-.261-1.549 9.96 9.96 0 0 1-.087-1.327c-.59.927-1.417 1.693-2.481 2.299-1.064.606-2.286.909-3.666.909-1.675 0-2.974-.445-3.896-1.336-.922-.89-1.382-2.099-1.382-3.626s.669-2.766 2.007-3.714 3.076-1.422 5.215-1.422h4.203v-2.118c0-1.222-.387-2.181-1.161-2.876s-1.868-1.043-3.279-1.043c-1.296 0-2.341.316-3.137.948s-1.193 1.428-1.193 2.387h-1.754l-.031-.095c-.063-1.286.487-2.416 1.651-3.39 1.164-.975 2.684-1.462 4.559-1.462s3.382.479 4.52 1.438c1.138.959 1.707 2.334 1.707 4.125v8.406c0 .601.034 1.186.103 1.755.068.568.182 1.132.34 1.69h-1.977zm-6.289-1.343c1.454 0 2.712-.346 3.777-1.035 1.064-.69 1.786-1.578 2.165-2.663v-3.271h-4.219c-1.538 0-2.808.366-3.808 1.099-1.001.732-1.501 1.614-1.501 2.646 0 .97.319 1.749.956 2.339.636.59 1.513.885 2.63.885zM417.688 119.27h.095l6.748-14.443h2.339v17.099h-1.896v-13.812l-.095-.016-6.479 13.827h-1.343l-6.589-14.111-.095.016v14.096h-1.896v-17.099h2.481l6.73 14.443zM451.015 104.826h1.896v17.099h-1.896v-13.953l-.095-.032-9.134 13.985h-1.896v-17.099h1.896v13.938l.095.016 9.134-13.954zM465.87 121.925v-17.099h6.273c2.128 0 3.782.382 4.962 1.146 1.18.764 1.77 1.903 1.77 3.421 0 .874-.264 1.644-.79 2.307-.527.664-1.275 1.144-2.244 1.438 1.117.211 2.015.692 2.694 1.446.68.753 1.019 1.619 1.019 2.599 0 1.549-.566 2.727-1.699 3.532s-2.673 1.209-4.622 1.209h-7.363zm1.896-9.45h4.551c1.527 0 2.689-.255 3.484-.766.795-.512 1.193-1.268 1.193-2.269 0-1.021-.409-1.777-1.225-2.268-.816-.489-2.025-.734-3.626-.734h-4.377v6.037zm0 1.58v6.29h5.468c1.412 0 2.505-.274 3.279-.822.774-.547 1.162-1.338 1.162-2.37 0-.948-.393-1.701-1.177-2.26s-1.873-.838-3.263-.838h-5.469zM494.915 104.826h1.896v17.099h-1.896v-13.953l-.095-.032-9.134 13.985h-1.896v-17.099h1.896v13.938l.095.016 9.134-13.954zM515.569 113.85c0 2.561-.58 4.602-1.738 6.124-1.159 1.522-2.755 2.283-4.788 2.283-1.19 0-2.236-.227-3.137-.68a5.77 5.77 0 0 1-2.205-1.928v8.85h-1.896v-23.673h1.454l.348 2.671c.569-.948 1.306-1.683 2.212-2.204.906-.521 1.97-.782 3.192-.782 2.054 0 3.661.819 4.82 2.457 1.159 1.639 1.738 3.821 1.738 6.55v.332zm-1.897-.332c0-2.17-.432-3.939-1.295-5.31-.864-1.369-2.128-2.054-3.793-2.054-1.253 0-2.278.3-3.073.9-.796.601-1.398 1.38-1.81 2.339v8.28c.442.928 1.069 1.657 1.88 2.188.811.532 1.823.798 3.034.798 1.654 0 2.91-.621 3.769-1.864.858-1.243 1.288-2.892 1.288-4.946v-.331zM532.24 106.438h-6.226v15.486h-1.896v-15.486h-5.989v-1.612h14.112v1.612zM540.9 117.295l.601 2.038h.095l5.167-14.507h2.118l-7.427 19.832c-.442 1.159-1.017 2.145-1.723 2.955-.706.812-1.738 1.217-3.097 1.217-.221 0-.49-.023-.806-.07a4.139 4.139 0 0 1-.695-.15l.221-1.58c.126.021.33.044.608.071.279.025.482.039.608.039.822 0 1.48-.292 1.976-.877.495-.585.917-1.335 1.264-2.252l.901-2.308-6.605-16.877h2.102l4.692 12.469zM562.47 121.925a27.9 27.9 0 0 1-.261-1.549 9.96 9.96 0 0 1-.087-1.327c-.59.927-1.417 1.693-2.481 2.299-1.064.606-2.286.909-3.666.909-1.675 0-2.974-.445-3.896-1.336-.922-.89-1.382-2.099-1.382-3.626s.669-2.766 2.007-3.714 3.076-1.422 5.215-1.422h4.203v-2.118c0-1.222-.387-2.181-1.161-2.876s-1.868-1.043-3.279-1.043c-1.296 0-2.341.316-3.137.948s-1.193 1.428-1.193 2.387h-1.754l-.031-.095c-.063-1.286.487-2.416 1.651-3.39 1.164-.975 2.684-1.462 4.559-1.462s3.382.479 4.52 1.438c1.138.959 1.707 2.334 1.707 4.125v8.406c0 .601.034 1.186.103 1.755.068.568.182 1.132.34 1.69h-1.977zm-6.289-1.343c1.454 0 2.712-.346 3.777-1.035 1.064-.69 1.786-1.578 2.165-2.663v-3.271h-4.219c-1.538 0-2.808.366-3.808 1.099-1.001.732-1.501 1.614-1.501 2.646 0 .97.319 1.749.956 2.339.636.59 1.513.885 2.63.885zM582.065 104.826v17.099h-1.896v-15.471h-7.253v5.926c0 3.361-.39 5.792-1.169 7.293-.78 1.501-2.097 2.252-3.951 2.252h-.695l.031-1.69.601-.017c1.159 0 1.999-.582 2.521-1.746s.782-3.194.782-6.092v-7.554h11.029zM588.908 111.669h4.883c1.97 0 3.505.475 4.606 1.422 1.101.948 1.651 2.176 1.651 3.683 0 1.517-.551 2.755-1.651 3.713-1.101.959-2.637 1.438-4.606 1.438h-6.779v-17.099h1.896v6.843zm0 1.612v7.048h4.883c1.464 0 2.557-.335 3.279-1.004s1.083-1.509 1.083-2.521c0-.969-.363-1.799-1.09-2.489-.727-.689-1.817-1.034-3.271-1.034h-4.884zM617.163 121.925h-1.896v-7.838h-9.213v7.838h-1.896v-17.099h1.896v7.664h9.213v-7.664h1.896v17.099zM624.542 111.669h4.883c1.97 0 3.506.475 4.606 1.422 1.102.948 1.652 2.176 1.652 3.683 0 1.517-.551 2.755-1.652 3.713-1.1.959-2.636 1.438-4.606 1.438h-6.779v-17.099h1.896v6.843zm0 1.612v7.048h4.883c1.464 0 2.558-.335 3.28-1.004.721-.669 1.082-1.509 1.082-2.521 0-.969-.363-1.799-1.09-2.489-.728-.689-1.818-1.034-3.272-1.034h-4.883zm16.782 8.644h-1.896v-17.099h1.896v17.099zM651.977 111.812l4.63-6.985h2.244l-5.8 8.392 6.036 8.707h-2.212l-4.867-7.285-4.867 7.285h-2.244l6.053-8.707-5.8-8.392h2.229l4.598 6.985zM676.517 109.314c1.675 0 2.944-.416 3.809-1.248.863-.832 1.296-1.907 1.296-3.224 0-1.37-.4-2.486-1.201-3.351-.801-.863-1.986-1.296-3.556-1.296-1.475 0-2.697.44-3.666 1.319-.97.88-1.454 2.021-1.454 3.422h-1.77l-.031-.095c-.054-1.791.584-3.282 1.912-4.473 1.327-1.19 2.996-1.785 5.009-1.785 2.044 0 3.664.553 4.859 1.659 1.195 1.105 1.794 2.66 1.794 4.661 0 1.138-.33 2.171-.988 3.098s-1.562 1.617-2.71 2.07c1.327.421 2.347 1.111 3.058 2.07.711.958 1.067 2.139 1.067 3.539 0 2.055-.648 3.664-1.944 4.828s-2.981 1.746-5.057 1.746c-1.949 0-3.674-.577-5.175-1.73-1.502-1.153-2.227-2.736-2.173-4.749l.031-.095h1.77c0 1.423.521 2.607 1.564 3.556s2.371 1.422 3.982 1.422c1.602 0 2.854-.442 3.761-1.327s1.359-2.08 1.359-3.587c0-1.622-.482-2.831-1.446-3.627-.964-.795-2.331-1.192-4.101-1.192h-2.117v-1.612h2.118zM688.18 120.329c.832 0 1.488-.799 1.968-2.395.479-1.596.792-3.905.939-6.93l.364-6.179h10.256v15.503h1.611v7.158h-1.896v-5.563h-12.91v5.563h-1.802v-7.158h1.47zm4.803-9.324c-.126 2.255-.337 4.156-.632 5.705s-.727 2.755-1.296 3.619h8.755v-13.732h-6.574l-.253 4.408zM727.827 106.438h-6.226v15.486h-1.896v-15.486h-5.989v-1.612h14.111v1.612zM736.488 117.295l.6 2.038h.096l5.167-14.507h2.117l-7.427 19.832c-.442 1.159-1.017 2.145-1.723 2.955-.706.812-1.738 1.217-3.098 1.217-.221 0-.489-.023-.806-.07a4.163 4.163 0 0 1-.695-.15l.222-1.58c.126.021.329.044.608.071.278.025.481.039.608.039.821 0 1.479-.292 1.975-.877s.917-1.335 1.265-2.252l.9-2.308-6.605-16.877h2.103l4.693 12.469zM761.234 113.85c0 2.561-.579 4.602-1.738 6.124s-2.755 2.283-4.788 2.283c-1.19 0-2.236-.227-3.137-.68s-1.636-1.096-2.204-1.928v8.85h-1.896v-23.673h1.453l.348 2.671c.569-.948 1.307-1.683 2.213-2.204s1.97-.782 3.192-.782c2.054 0 3.66.819 4.819 2.457 1.159 1.639 1.738 3.821 1.738 6.55v.332zm-1.896-.332c0-2.17-.432-3.939-1.296-5.31-.863-1.369-2.128-2.054-3.792-2.054-1.254 0-2.278.3-3.074.9a5.672 5.672 0 0 0-1.809 2.339v8.28c.442.928 1.068 1.657 1.88 2.188.812.532 1.822.798 3.034.798 1.654 0 2.91-.621 3.769-1.864s1.288-2.892 1.288-4.946v-.331zM764.427 113.123c0-2.518.689-4.583 2.069-6.194 1.38-1.612 3.208-2.418 5.483-2.418 2.286 0 4.119.806 5.5 2.418 1.38 1.611 2.069 3.677 2.069 6.194v.521c0 2.528-.687 4.596-2.062 6.202s-3.2 2.41-5.476 2.41c-2.297 0-4.136-.804-5.516-2.41s-2.069-3.674-2.069-6.202v-.521zm1.895.522c0 1.98.501 3.645 1.502 4.993 1 1.349 2.396 2.022 4.188 2.022 1.759 0 3.142-.674 4.147-2.022 1.007-1.349 1.51-3.013 1.51-4.993v-.521c0-1.949-.506-3.604-1.518-4.962-1.011-1.359-2.401-2.039-4.172-2.039-1.77 0-3.155.68-4.155 2.039-1.001 1.358-1.502 3.013-1.502 4.962v.521zM783.595 121.925v-17.099h6.273c2.128 0 3.782.382 4.962 1.146 1.18.764 1.77 1.903 1.77 3.421 0 .874-.263 1.644-.79 2.307-.526.664-1.274 1.144-2.244 1.438 1.117.211 2.016.692 2.694 1.446.68.753 1.02 1.619 1.02 2.599 0 1.549-.566 2.727-1.698 3.532-1.133.806-2.674 1.209-4.623 1.209h-7.364zm1.896-9.45h4.551c1.527 0 2.688-.255 3.484-.766.795-.512 1.193-1.268 1.193-2.269 0-1.021-.408-1.777-1.225-2.268-.816-.489-2.025-.734-3.627-.734h-4.377v6.037zm0 1.58v6.29h5.467c1.412 0 2.505-.274 3.279-.822.774-.547 1.162-1.338 1.162-2.37 0-.948-.393-1.701-1.178-2.26s-1.873-.838-3.264-.838h-5.466z"/><g><path d="M195.547 74.457c-5.787 0-11.07-2.265-15.095-6.122-5.116-4.864-5.535-10.65-5.535-24.236 0-11.908-.336-18.366 5.535-24.236 3.941-3.941 9.309-6.122 15.011-6.122 7.044 0 11.825 2.936 16.772 7.464l-3.019 3.019c-4.193-4.025-7.715-6.458-13.669-6.458-6.96 0-14.173 4.696-15.347 11.993-.419 2.432-.755 4.528-.755 14.34v2.516c0 11.573.922 15.515 4.612 19.205 3.019 3.019 6.961 4.613 11.489 4.613 5.954 0 9.477-2.432 13.669-6.458l3.019 3.019c-5.197 4.695-9.475 7.463-16.687 7.463zM259.026 68.335c-3.941 3.941-9.309 6.122-14.927 6.122-5.619 0-10.986-2.181-14.928-6.122-5.199-5.2-5.535-10.986-5.535-24.236 0-10.986-.419-18.282 5.535-24.236 3.941-3.941 9.309-6.122 14.928-6.122 5.619 0 10.986 2.181 14.927 6.122 6.206 6.206 5.535 15.095 5.535 24.236 0 14.424-.587 19.288-5.535 24.236zm1.007-25.662c0-12.747-.839-16.521-4.612-20.294-2.936-2.935-7.044-4.613-11.321-4.613-4.361 0-8.387 1.678-11.322 4.613-4.193 4.193-4.612 9.56-4.612 21.72v2.6c0 11.405.922 15.431 4.612 19.121 2.935 2.935 6.96 4.613 11.322 4.613 4.36 0 8.386-1.678 11.321-4.613 4.696-4.696 4.612-11.154 4.612-20.881v-2.266zM280.658 73.954v-59.71h4.528v55.685h31.7v4.025h-36.228zM358.31 68.335c-3.941 3.941-9.309 6.122-14.927 6.122-5.619 0-10.986-2.181-14.928-6.122-5.199-5.2-5.535-10.986-5.535-24.236 0-10.986-.419-18.282 5.535-24.236 3.941-3.941 9.309-6.122 14.928-6.122 5.619 0 10.986 2.181 14.927 6.122 6.206 6.206 5.535 15.095 5.535 24.236-.001 14.424-.588 19.288-5.535 24.236zm1.006-25.662c0-12.747-.839-16.521-4.612-20.294-2.936-2.935-7.044-4.613-11.321-4.613-4.361 0-8.387 1.678-11.322 4.613-4.193 4.193-4.612 9.56-4.612 21.72v2.6c0 11.405.922 15.431 4.612 19.121 2.935 2.935 6.96 4.613 11.322 4.613 4.36 0 8.386-1.678 11.321-4.613 4.696-4.696 4.612-11.154 4.612-20.881v-2.266zM415.163 73.954l-14.256-27.507H384.47v27.507h-4.528v-59.71h22.727c10.399 0 17.108 6.29 17.108 16.018 0 4.277-1.258 7.967-3.606 10.734-2.768 3.271-6.038 4.445-10.147 5.367l14.424 27.591h-5.285zm-13.082-31.533c8.302 0 13.166-4.445 13.166-12.076s-4.864-12.076-13.166-12.076H384.47v24.152h17.611zM463.798 46.279c2.432 2.767 3.522 6.206 3.522 10.398 0 10.818-7.463 17.779-19.037 17.779-5.787 0-10.818-1.845-14.173-5.116-3.606-3.522-4.444-7.631-4.78-12.496h10.902c.335 5.116 3.187 7.799 8.135 7.799s8.051-3.187 8.051-8.302c0-5.116-3.187-8.219-8.386-8.219h-1.593v-9.477h1.593c4.78 0 7.547-2.768 7.547-7.464 0-4.612-2.935-7.631-7.296-7.631-4.277 0-6.877 2.516-7.38 7.212h-10.902c.252-3.438.503-4.864 1.426-6.961 2.684-6.29 9.057-10.063 16.856-10.063 10.65 0 18.198 7.128 18.198 17.192 0 3.774-1.006 6.793-3.103 9.225-1.006 1.174-1.761 1.761-3.774 2.935 2.182 1.26 3.02 1.931 4.194 3.189zM496.836 38.145c9.057 0 15.766 7.547 15.766 17.779 0 11.07-7.464 18.534-18.701 18.534-11.07 0-18.534-7.296-18.534-18.198 0-4.612 1.09-8.051 5.032-16.186l12.579-25.83h11.909L492.475 38.9c1.51-.588 2.684-.755 4.361-.755zm-2.851 9.057c-4.696 0-7.716 3.438-7.716 8.722 0 5.283 3.02 8.722 7.716 8.722 4.612 0 7.715-3.438 7.715-8.554 0-5.368-3.019-8.89-7.715-8.89zM539.686 74.457c-10.734 0-18.198-7.296-18.198-17.779V31.52c0-10.483 7.464-17.779 18.198-17.779 10.65 0 18.114 7.296 18.114 17.779v25.158c0 10.483-7.38 17.779-18.114 17.779zm0-9.812c4.361 0 7.212-3.187 7.212-8.051V31.687c0-4.948-2.852-8.135-7.212-8.135s-7.296 3.271-7.296 8.135v24.907c0 4.864 2.851 8.051 7.296 8.051z"/></g></g></svg>