<svg version="1.2" baseProfile="tiny" xmlns="http://www.w3.org/2000/svg" width="567.033" height="176.584" viewBox="0 0 567.033 176.584" overflow="scroll"><path fill="#F9A147" d="M2.996 153.902l71.515-122.97L50.2 105.581z"/><path fill="#F37C21" d="M74.511 128.589L2.996 153.902 50.2 105.581z"/><path fill="#F05823" d="M74.511 128.589V30.932L50.2 105.581z"/><path fill="#E12726" d="M146.027 153.902L74.511 30.932l24.311 74.649z"/><path fill="#F05823" d="M74.511 128.589l71.516 25.313-47.205-48.321z"/><path fill="#F37C21" d="M74.511 128.589V30.932l24.311 74.649z"/><g fill="#FFF"><path d="M198.471 112.494l.036.108c.048 2.577-.795 4.636-2.529 6.177-1.734 1.542-4.01 2.312-6.827 2.312-2.926 0-5.287-1.057-7.081-3.17s-2.691-4.85-2.691-8.209v-4.281c0-3.347.897-6.083 2.691-8.209 1.794-2.125 4.154-3.188 7.081-3.188 2.854 0 5.138.753 6.854 2.258 1.716 1.505 2.55 3.576 2.502 6.213l-.036.108h-2.023c0-2.119-.647-3.772-1.942-4.958s-3.08-1.779-5.355-1.779c-2.3 0-4.146.891-5.536 2.673s-2.086 4.064-2.086 6.845v4.317c0 2.817.695 5.114 2.086 6.891 1.391 1.776 3.236 2.664 5.536 2.664 2.275 0 4.061-.578 5.355-1.734 1.294-1.156 1.942-2.836 1.942-5.04h2.023zM201.342 101.169h8.146v7.821h5.581c2.251 0 4.007.542 5.265 1.625 1.258 1.084 1.888 2.487 1.888 4.208 0 1.734-.629 3.149-1.888 4.245s-3.014 1.644-5.265 1.644h-7.749v-17.701h-5.978v-1.842zm8.146 9.664v8.056h5.581c1.674 0 2.923-.382 3.748-1.147.825-.765 1.237-1.725 1.237-2.881 0-1.107-.416-2.056-1.247-2.845-.831-.789-2.077-1.183-3.739-1.183h-5.58zM234.396 121.092c-2.529 0-4.582-.894-6.159-2.682-1.578-1.788-2.366-4.085-2.366-6.891v-.994c0-2.817.797-5.141 2.393-6.972 1.596-1.83 3.573-2.745 5.934-2.745 2.372 0 4.205.762 5.5 2.285 1.294 1.523 1.942 3.573 1.942 6.15v1.68h-13.601v.596c0 2.228.563 4.076 1.689 5.545 1.125 1.469 2.682 2.204 4.669 2.204 1.192 0 2.288-.196 3.287-.587.999-.391 1.83-.918 2.492-1.581l.921 1.481c-.687.723-1.586 1.322-2.7 1.797s-2.448.714-4.001.714zm-.199-18.441c-1.662 0-3.029.596-4.1 1.788-1.072 1.192-1.698 2.703-1.878 4.533l.054.108h11.198v-.452c0-1.734-.455-3.164-1.364-4.29-.909-1.124-2.212-1.687-3.91-1.687zM256.72 117.678h.108l7.712-16.509h2.673v19.543h-2.167v-15.786l-.108-.018-7.405 15.804h-1.535l-7.532-16.129-.108.018v16.111h-2.167v-19.543h2.836l7.693 16.509zM277.834 111.754h-2.475v8.958h-2.186v-19.543h2.186v8.67h2.42l7.712-8.67h2.601l.036.09-8.417 9.392 9.302 9.952-.054.108h-2.691l-8.434-8.957zM304.98 120.712a31.343 31.343 0 0 1-.298-1.77c-.066-.494-.1-1-.1-1.517-.674 1.06-1.62 1.936-2.835 2.628-1.216.692-2.613 1.039-4.19 1.039-1.915 0-3.399-.509-4.452-1.526-1.054-1.017-1.581-2.399-1.581-4.145s.765-3.161 2.294-4.245c1.529-1.083 3.516-1.625 5.96-1.625h4.804v-2.42c0-1.396-.442-2.492-1.328-3.287-.885-.795-2.134-1.192-3.748-1.192-1.481 0-2.676.361-3.585 1.083s-1.364 1.632-1.364 2.728h-2.004l-.036-.108c-.072-1.469.557-2.761 1.887-3.875s3.067-1.67 5.211-1.67c2.143 0 3.865.548 5.166 1.644s1.951 2.667 1.951 4.714v9.609c0 .687.039 1.354.117 2.005.079.65.208 1.294.389 1.933h-2.258zm-7.188-1.535c1.662 0 3.1-.395 4.316-1.183s2.041-1.803 2.475-3.043v-3.739h-4.822c-1.758 0-3.209.418-4.353 1.255s-1.716 1.845-1.716 3.025c0 1.108.364 1.999 1.093 2.673.728.675 1.731 1.012 3.007 1.012zM336.372 120.712h-2.167V103.03h-10.548v17.683h-2.167V101.17h14.883v19.542zM354.452 120.712a31.343 31.343 0 0 1-.298-1.77c-.066-.494-.1-1-.1-1.517-.674 1.06-1.62 1.936-2.835 2.628-1.216.692-2.613 1.039-4.19 1.039-1.915 0-3.399-.509-4.452-1.526-1.054-1.017-1.581-2.399-1.581-4.145s.765-3.161 2.294-4.245c1.529-1.083 3.516-1.625 5.96-1.625h4.804v-2.42c0-1.396-.442-2.492-1.328-3.287-.885-.795-2.134-1.192-3.748-1.192-1.481 0-2.676.361-3.585 1.083s-1.364 1.632-1.364 2.728h-2.004l-.036-.108c-.072-1.469.557-2.761 1.887-3.875s3.067-1.67 5.211-1.67c2.143 0 3.865.548 5.166 1.644s1.951 2.667 1.951 4.714v9.609c0 .687.039 1.354.117 2.005.079.65.208 1.294.389 1.933h-2.258zm-7.189-1.535c1.662 0 3.1-.395 4.316-1.183s2.041-1.803 2.475-3.043v-3.739h-4.822c-1.758 0-3.209.418-4.353 1.255s-1.716 1.845-1.716 3.025c0 1.108.364 1.999 1.093 2.673.728.675 1.731 1.012 3.007 1.012zM376.83 120.712h-2.167v-8.958h-10.53v8.958h-2.167v-19.543h2.167v8.76h10.53v-8.76h2.167v19.543zM381.345 110.652c0-2.877.789-5.238 2.366-7.08 1.577-1.842 3.667-2.763 6.268-2.763 2.612 0 4.708.921 6.285 2.763s2.366 4.203 2.366 7.08v.596c0 2.89-.786 5.253-2.357 7.089s-3.658 2.754-6.258 2.754c-2.625 0-4.727-.918-6.304-2.754-1.578-1.836-2.366-4.2-2.366-7.089v-.596zm2.168.596c0 2.264.572 4.167 1.716 5.708 1.144 1.542 2.739 2.312 4.787 2.312 2.011 0 3.591-.771 4.741-2.312 1.149-1.541 1.725-3.443 1.725-5.708v-.596c0-2.228-.578-4.118-1.734-5.671-1.156-1.553-2.746-2.33-4.768-2.33-2.023 0-3.606.776-4.75 2.33-1.144 1.554-1.716 3.444-1.716 5.671v.596zM418.878 111.483c0 2.926-.662 5.259-1.987 6.999-1.325 1.74-3.149 2.61-5.473 2.61-1.361 0-2.556-.259-3.585-.777a6.585 6.585 0 0 1-2.52-2.204v10.115h-2.167v-27.057h1.662l.397 3.053c.65-1.084 1.493-1.924 2.529-2.52 1.036-.596 2.251-.894 3.648-.894 2.348 0 4.184.936 5.509 2.809 1.325 1.872 1.987 4.368 1.987 7.486v.38zm-2.168-.379c0-2.48-.494-4.503-1.481-6.069-.987-1.565-2.432-2.348-4.335-2.348-1.433 0-2.604.343-3.513 1.029-.909.687-1.599 1.578-2.068 2.673v9.464c.506 1.06 1.222 1.894 2.149 2.501s2.083.912 3.468.912c1.891 0 3.326-.71 4.308-2.131.981-1.421 1.472-3.305 1.472-5.653v-.378zM436.109 120.712a31.343 31.343 0 0 1-.298-1.77c-.066-.494-.1-1-.1-1.517-.674 1.06-1.62 1.936-2.835 2.628-1.216.692-2.613 1.039-4.19 1.039-1.915 0-3.399-.509-4.452-1.526-1.054-1.017-1.581-2.399-1.581-4.145s.765-3.161 2.294-4.245c1.529-1.083 3.516-1.625 5.96-1.625h4.804v-2.42c0-1.396-.442-2.492-1.328-3.287-.885-.795-2.134-1.192-3.748-1.192-1.481 0-2.676.361-3.585 1.083s-1.364 1.632-1.364 2.728h-2.004l-.036-.108c-.072-1.469.557-2.761 1.887-3.875s3.067-1.67 5.211-1.67c2.143 0 3.865.548 5.166 1.644s1.951 2.667 1.951 4.714v9.609c0 .687.039 1.354.117 2.005.079.65.208 1.294.389 1.933h-2.258zm-7.189-1.535c1.662 0 3.1-.395 4.316-1.183s2.041-1.803 2.475-3.043v-3.739h-4.822c-1.758 0-3.209.418-4.353 1.255s-1.716 1.845-1.716 3.025c0 1.108.364 1.999 1.093 2.673.729.675 1.731 1.012 3.007 1.012zM454.333 117.678h.108l7.712-16.509h2.673v19.543h-2.167v-15.786l-.108-.018-7.405 15.804h-1.535l-7.532-16.129-.108.018v16.111h-2.167v-19.543h2.836l7.693 16.509zM492.425 101.169h2.167v19.543h-2.167v-15.949l-.108-.036-10.44 15.985h-2.167v-19.543h2.167V117.1l.108.018 10.44-15.949zM179.957 165.101v-19.543h7.171c2.432 0 4.322.437 5.671 1.31 1.348.873 2.023 2.177 2.023 3.91 0 1-.301 1.879-.903 2.638-.602.758-1.457 1.307-2.565 1.644 1.276.24 2.303.792 3.08 1.652.777.861 1.165 1.852 1.165 2.971 0 1.771-.647 3.116-1.941 4.037-1.295.921-3.056 1.382-5.283 1.382h-8.418zm2.168-10.801h5.202c1.746 0 3.073-.292 3.982-.876s1.364-1.448 1.364-2.592c0-1.168-.467-2.032-1.4-2.592-.933-.561-2.315-.84-4.145-.84h-5.003v6.9zm0 1.805v7.188h6.25c1.613 0 2.863-.313 3.748-.938.885-.626 1.328-1.529 1.328-2.71 0-1.083-.449-1.944-1.346-2.582-.897-.639-2.14-.958-3.729-.958h-6.251zM213.155 145.558h2.167v19.543h-2.167v-15.948l-.108-.036-10.44 15.984h-2.167v-19.543h2.167v15.931l.108.018 10.44-15.949zM236.761 155.871c0 2.926-.662 5.259-1.987 6.999s-3.149 2.609-5.473 2.609c-1.361 0-2.556-.259-3.585-.776a6.59 6.59 0 0 1-2.52-2.203v10.114h-2.167v-27.057h1.662l.397 3.053c.65-1.084 1.493-1.924 2.529-2.52 1.036-.597 2.251-.895 3.648-.895 2.348 0 4.184.937 5.509 2.809 1.325 1.873 1.987 4.368 1.987 7.487v.38zm-2.167-.379c0-2.48-.494-4.504-1.481-6.069s-2.432-2.348-4.335-2.348c-1.433 0-2.604.343-3.513 1.029-.909.687-1.599 1.577-2.068 2.673v9.465c.506 1.06 1.222 1.894 2.149 2.501.927.608 2.083.912 3.468.912 1.891 0 3.326-.71 4.308-2.131.981-1.421 1.472-3.306 1.472-5.653v-.379zM255.817 147.4h-7.116v17.7h-2.167v-17.7h-6.846v-1.843h16.129v1.843zM265.714 159.809l.686 2.33h.108l5.906-16.581h2.42l-8.489 22.668c-.506 1.324-1.162 2.45-1.969 3.377-.807.928-1.987 1.391-3.54 1.391-.253 0-.56-.026-.921-.081-.361-.054-.626-.111-.795-.172l.253-1.806c.145.024.376.051.695.081.319.03.551.045.695.045.939 0 1.692-.334 2.258-1.002s1.047-1.526 1.445-2.574l1.03-2.637-7.55-19.29h2.402l5.366 14.251zM290.369 165.101a31.21 31.21 0 0 1-.298-1.771c-.066-.493-.1-.999-.1-1.517-.674 1.06-1.62 1.936-2.835 2.628-1.216.692-2.613 1.038-4.19 1.038-1.915 0-3.399-.508-4.452-1.525-1.054-1.018-1.581-2.399-1.581-4.146s.765-3.161 2.294-4.244c1.529-1.084 3.516-1.626 5.96-1.626h4.804v-2.42c0-1.397-.442-2.493-1.328-3.288-.885-.794-2.134-1.191-3.748-1.191-1.481 0-2.676.361-3.585 1.083-.909.723-1.364 1.632-1.364 2.728h-2.004l-.036-.108c-.072-1.469.557-2.76 1.887-3.874 1.331-1.113 3.067-1.671 5.211-1.671 2.143 0 3.865.548 5.166 1.644s1.951 2.668 1.951 4.715v9.608c0 .687.039 1.354.117 2.005.079.65.208 1.295.389 1.933h-2.258zm-7.189-1.536c1.662 0 3.1-.395 4.316-1.184 1.216-.788 2.041-1.803 2.475-3.043V155.6h-4.822c-1.758 0-3.209.418-4.353 1.255s-1.716 1.846-1.716 3.025c0 1.107.364 1.999 1.093 2.673.728.676 1.731 1.012 3.007 1.012zM312.765 145.558v19.543h-2.167v-17.683h-8.291v6.773c0 3.841-.445 6.619-1.336 8.335s-2.396 2.574-4.516 2.574h-.794l.036-1.933.686-.018c1.325 0 2.285-.666 2.881-1.996.596-1.33.894-3.651.894-6.963v-8.634h12.607zM320.586 153.379h5.581c2.251 0 4.007.541 5.265 1.625s1.887 2.486 1.887 4.209c0 1.733-.629 3.148-1.887 4.244s-3.014 1.644-5.265 1.644h-7.749v-19.543h2.167v7.821zm0 1.842v8.056h5.581c1.674 0 2.923-.382 3.748-1.146.825-.765 1.237-1.726 1.237-2.881 0-1.108-.416-2.057-1.247-2.845-.831-.789-2.077-1.184-3.739-1.184h-5.58zM352.88 165.101h-2.167v-8.959h-10.53v8.959h-2.167v-19.543h2.167v8.76h10.53v-8.76h2.167v19.543zM361.315 153.379h5.581c2.251 0 4.007.541 5.265 1.625s1.887 2.486 1.887 4.209c0 1.733-.629 3.148-1.887 4.244-1.258 1.096-3.014 1.644-5.265 1.644h-7.749v-19.543h2.167v7.821zm0 1.842v8.056h5.581c1.673 0 2.923-.382 3.748-1.146.824-.765 1.237-1.726 1.237-2.881 0-1.108-.415-2.057-1.246-2.845-.831-.789-2.077-1.184-3.739-1.184h-5.581zm19.182 9.88h-2.167v-19.543h2.167v19.543zM392.67 153.541l5.292-7.983h2.565l-6.628 9.591 6.899 9.952h-2.529l-5.563-8.326-5.563 8.326h-2.564l6.917-9.952-6.629-9.591h2.547l5.256 7.983zM420.72 150.688c1.915 0 3.365-.476 4.353-1.427s1.481-2.18 1.481-3.685c0-1.565-.458-2.842-1.373-3.829s-2.27-1.481-4.063-1.481c-1.686 0-3.083.503-4.19 1.508-1.108 1.006-1.662 2.31-1.662 3.911h-2.023l-.036-.108c-.061-2.047.668-3.751 2.186-5.111 1.517-1.361 3.425-2.041 5.726-2.041 2.335 0 4.187.632 5.554 1.896 1.367 1.264 2.05 3.04 2.05 5.328 0 1.3-.376 2.48-1.128 3.54-.753 1.06-1.786 1.849-3.098 2.366 1.517.481 2.682 1.271 3.495 2.365.813 1.097 1.219 2.445 1.219 4.046 0 2.349-.74 4.188-2.222 5.519-1.481 1.33-3.408 1.995-5.78 1.995-2.228 0-4.199-.659-5.915-1.978s-2.544-3.127-2.483-5.428l.036-.108h2.023c0 1.626.596 2.98 1.788 4.064s2.709 1.625 4.551 1.625c1.831 0 3.263-.505 4.299-1.517s1.553-2.378 1.553-4.101c0-1.854-.551-3.235-1.652-4.145-1.102-.909-2.664-1.364-4.687-1.364h-2.42v-1.842h2.418zM434.05 163.276c.951 0 1.7-.912 2.249-2.736.548-1.824.906-4.464 1.075-7.92l.416-7.063h11.722v17.719h1.842v8.182h-2.167v-6.357H434.43v6.357h-2.059v-8.182h1.679zm5.491-10.656c-.145 2.577-.386 4.75-.723 6.521-.337 1.77-.831 3.148-1.481 4.136h10.006v-15.695h-7.514l-.288 5.038zM479.367 147.4h-7.116v17.7h-2.167v-17.7h-6.846v-1.843h16.129v1.843zM489.265 159.809l.686 2.33h.108l5.906-16.581h2.42l-8.489 22.668c-.506 1.324-1.162 2.45-1.969 3.377-.807.928-1.987 1.391-3.54 1.391-.253 0-.56-.026-.921-.081-.361-.054-.626-.111-.795-.172l.253-1.806c.145.024.376.051.695.081.319.03.551.045.695.045.939 0 1.692-.334 2.258-1.002s1.047-1.526 1.445-2.574l1.03-2.637-7.55-19.29h2.402l5.366 14.251zM517.549 155.871c0 2.926-.662 5.259-1.987 6.999s-3.149 2.609-5.473 2.609c-1.361 0-2.556-.259-3.585-.776a6.59 6.59 0 0 1-2.52-2.203v10.114h-2.167v-27.057h1.662l.397 3.053c.65-1.084 1.493-1.924 2.529-2.52 1.036-.597 2.251-.895 3.648-.895 2.348 0 4.184.937 5.509 2.809 1.325 1.873 1.987 4.368 1.987 7.487v.38zm-2.168-.379c0-2.48-.494-4.504-1.481-6.069s-2.432-2.348-4.335-2.348c-1.433 0-2.604.343-3.513 1.029-.909.687-1.599 1.577-2.068 2.673v9.465c.506 1.06 1.222 1.894 2.149 2.501.927.608 2.083.912 3.468.912 1.891 0 3.326-.71 4.308-2.131.981-1.421 1.472-3.306 1.472-5.653v-.379zM521.197 155.04c0-2.878.789-5.237 2.366-7.08 1.577-1.842 3.667-2.764 6.268-2.764 2.612 0 4.708.922 6.285 2.764 1.578 1.843 2.366 4.202 2.366 7.08v.597c0 2.89-.786 5.253-2.357 7.089s-3.658 2.754-6.258 2.754c-2.625 0-4.727-.918-6.304-2.754-1.578-1.836-2.366-4.199-2.366-7.089v-.597zm2.168.597c0 2.264.572 4.166 1.716 5.707s2.739 2.312 4.787 2.312c2.011 0 3.591-.771 4.741-2.312 1.149-1.541 1.725-3.443 1.725-5.707v-.597c0-2.228-.578-4.118-1.734-5.671-1.156-1.554-2.746-2.33-4.768-2.33-2.023 0-3.606.776-4.75 2.33-1.144 1.553-1.716 3.443-1.716 5.671v.597zM543.106 165.101v-19.543h7.171c2.432 0 4.322.437 5.671 1.31 1.348.873 2.023 2.177 2.023 3.91 0 1-.301 1.879-.903 2.638-.602.758-1.457 1.307-2.565 1.644 1.276.24 2.303.792 3.08 1.652.777.861 1.165 1.852 1.165 2.971 0 1.771-.647 3.116-1.941 4.037-1.295.921-3.056 1.382-5.283 1.382h-8.418zm2.167-10.801h5.202c1.746 0 3.073-.292 3.982-.876s1.364-1.448 1.364-2.592c0-1.168-.467-2.032-1.4-2.592-.933-.561-2.315-.84-4.145-.84h-5.003v6.9zm0 1.805v7.188h6.25c1.613 0 2.863-.313 3.748-.938.885-.626 1.328-1.529 1.328-2.71 0-1.083-.449-1.944-1.346-2.582-.897-.639-2.14-.958-3.729-.958h-6.251z"/><g><path d="M197.501 74.29c-5.787 0-11.07-2.265-15.095-6.122-5.116-4.864-5.535-10.65-5.535-24.236 0-11.908-.336-18.366 5.535-24.236 3.941-3.941 9.309-6.122 15.011-6.122 7.044 0 11.825 2.936 16.772 7.464l-3.019 3.019c-4.193-4.025-7.715-6.458-13.669-6.458-6.96 0-14.173 4.696-15.347 11.993-.419 2.432-.755 4.528-.755 14.34v2.516c0 11.573.922 15.515 4.612 19.205 3.019 3.019 6.961 4.613 11.489 4.613 5.954 0 9.477-2.432 13.669-6.458l3.019 3.019c-5.197 4.695-9.475 7.463-16.687 7.463zM260.98 68.167c-3.941 3.941-9.309 6.122-14.927 6.122-5.619 0-10.986-2.181-14.928-6.122-5.199-5.2-5.535-10.986-5.535-24.236 0-10.986-.419-18.282 5.535-24.236 3.941-3.941 9.309-6.122 14.928-6.122 5.619 0 10.986 2.181 14.927 6.122 6.206 6.206 5.535 15.095 5.535 24.236 0 14.424-.587 19.288-5.535 24.236zm1.007-25.662c0-12.747-.839-16.521-4.612-20.294-2.936-2.935-7.044-4.613-11.321-4.613-4.361 0-8.387 1.678-11.322 4.613-4.193 4.193-4.612 9.56-4.612 21.72v2.6c0 11.405.922 15.431 4.612 19.121 2.935 2.935 6.96 4.613 11.322 4.613 4.36 0 8.386-1.678 11.321-4.613 4.696-4.696 4.612-11.154 4.612-20.881v-2.266zM282.612 73.786v-59.71h4.528v55.685h31.7v4.025h-36.228zM360.264 68.167c-3.941 3.941-9.309 6.122-14.927 6.122-5.619 0-10.986-2.181-14.928-6.122-5.199-5.2-5.535-10.986-5.535-24.236 0-10.986-.419-18.282 5.535-24.236 3.941-3.941 9.309-6.122 14.928-6.122 5.619 0 10.986 2.181 14.927 6.122 6.206 6.206 5.535 15.095 5.535 24.236-.001 14.424-.588 19.288-5.535 24.236zm1.006-25.662c0-12.747-.839-16.521-4.612-20.294-2.936-2.935-7.044-4.613-11.321-4.613-4.361 0-8.387 1.678-11.322 4.613-4.193 4.193-4.612 9.56-4.612 21.72v2.6c0 11.405.922 15.431 4.612 19.121 2.935 2.935 6.96 4.613 11.322 4.613 4.36 0 8.386-1.678 11.321-4.613 4.696-4.696 4.612-11.154 4.612-20.881v-2.266zM417.117 73.786L402.86 46.279h-16.437v27.507h-4.528v-59.71h22.727c10.399 0 17.108 6.29 17.108 16.018 0 4.277-1.258 7.967-3.606 10.734-2.768 3.271-6.038 4.445-10.147 5.367L422.4 73.786h-5.283zm-13.082-31.532c8.302 0 13.166-4.445 13.166-12.076s-4.864-12.076-13.166-12.076h-17.611v24.152h17.611zM465.752 46.112c2.432 2.767 3.522 6.206 3.522 10.398 0 10.818-7.463 17.779-19.037 17.779-5.787 0-10.818-1.845-14.173-5.116-3.606-3.522-4.444-7.631-4.78-12.496h10.902c.335 5.116 3.187 7.799 8.135 7.799s8.051-3.187 8.051-8.302c0-5.116-3.187-8.219-8.386-8.219h-1.593V38.48h1.593c4.78 0 7.547-2.768 7.547-7.464 0-4.612-2.935-7.631-7.296-7.631-4.277 0-6.877 2.516-7.38 7.212h-10.902c.252-3.438.503-4.864 1.426-6.961 2.684-6.29 9.057-10.063 16.856-10.063 10.65 0 18.198 7.128 18.198 17.192 0 3.774-1.006 6.793-3.103 9.225-1.006 1.174-1.761 1.761-3.774 2.935 2.182 1.258 3.02 1.929 4.194 3.187zM498.79 37.977c9.057 0 15.766 7.547 15.766 17.779 0 11.07-7.464 18.534-18.701 18.534-11.07 0-18.534-7.296-18.534-18.198 0-4.612 1.09-8.051 5.032-16.186l12.579-25.83h11.909l-12.412 24.656c1.51-.587 2.684-.755 4.361-.755zm-2.851 9.057c-4.696 0-7.716 3.438-7.716 8.722 0 5.283 3.02 8.722 7.716 8.722 4.612 0 7.715-3.438 7.715-8.554 0-5.368-3.019-8.89-7.715-8.89zM541.64 74.29c-10.734 0-18.198-7.296-18.198-17.779V31.352c0-10.483 7.464-17.779 18.198-17.779 10.65 0 18.114 7.296 18.114 17.779V56.51c0 10.483-7.38 17.78-18.114 17.78zm0-9.812c4.361 0 7.212-3.187 7.212-8.051V31.52c0-4.948-2.852-8.135-7.212-8.135s-7.296 3.271-7.296 8.135v24.907c0 4.864 2.851 8.051 7.296 8.051z"/></g></g></svg>