<svg xmlns="http://www.w3.org/2000/svg" width="17" height="17" viewBox="0 0 17 17">
  <metadata><?xpacket begin="﻿" id="W5M0MpCehiHzreSzNTczkc9d"?>
<x:xmpmeta xmlns:x="adobe:ns:meta/" x:xmptk="Adobe XMP Core 5.6-c138 79.159824, 2016/09/14-01:09:01        ">
   <rdf:RDF xmlns:rdf="http://www.w3.org/1999/02/22-rdf-syntax-ns#">
      <rdf:Description rdf:about=""/>
   </rdf:RDF>
</x:xmpmeta>
                                                                                                    
                                                                                                    
                                                                                                    
                                                                                                    
                                                                                                    
                                                                                                    
                                                                                                    
                                                                                                    
                                                                                                    
                                                                                                    
                                                                                                    
                                                                                                    
                                                                                                    
                                                                                                    
                                                                                                    
                                                                                                    
                                                                                                    
                                                                                                    
                                                                                                    
                                                                                                    
                           
<?xpacket end="w"?></metadata>
<defs>
    <style>
      .cls-1 {
        fill: #333;
        fill-rule: evenodd;
      }
    </style>
  </defs>
  <path id="Forma_1" data-name="Forma 1" class="cls-1" d="M76,321.414a0.82,0.82,0,0,1-.252.72l-2.4,2.378a1.365,1.365,0,0,1-.423.306,1.784,1.784,0,0,1-.513.163c-0.012,0-.048,0-0.108.008a2.155,2.155,0,0,1-.234.009,8.487,8.487,0,0,1-1.108-.117,8.355,8.355,0,0,1-1.873-.576,15.656,15.656,0,0,1-2.513-1.378,18.8,18.8,0,0,1-2.99-2.521,19.8,19.8,0,0,1-2.089-2.377,17,17,0,0,1-1.333-2.1,11.291,11.291,0,0,1-.757-1.747,9.261,9.261,0,0,1-.342-1.351A4.451,4.451,0,0,1,59,311.942c0.012-.215.018-0.337,0.018-0.36a1.759,1.759,0,0,1,.162-0.514,1.344,1.344,0,0,1,.306-0.422l2.4-2.4A0.792,0.792,0,0,1,62.461,308a0.678,0.678,0,0,1,.414.134,1.267,1.267,0,0,1,.306.333l1.927,3.657a0.871,0.871,0,0,1,.09.629,1.128,1.128,0,0,1-.306.577l-0.883.882a0.3,0.3,0,0,0-.063.117,0.439,0.439,0,0,0-.027.135,3.278,3.278,0,0,0,.324.865,7.938,7.938,0,0,0,.666,1.053,11.689,11.689,0,0,0,1.279,1.431,11.941,11.941,0,0,0,1.441,1.288,8.082,8.082,0,0,0,1.054.675,2.82,2.82,0,0,0,.648.262l0.225,0.046a0.383,0.383,0,0,0,.117-0.029,0.3,0.3,0,0,0,.117-0.062l1.027-1.044a1.1,1.1,0,0,1,.756-0.288,0.932,0.932,0,0,1,.486.108h0.018l3.476,2.053A0.906,0.906,0,0,1,76,321.414Z" transform="translate(-59 -308)"/>
</svg>
