<svg xmlns="http://www.w3.org/2000/svg" width="61.031" height="61" viewBox="0 0 61.031 61">
  <metadata><?xpacket begin="﻿" id="W5M0MpCehiHzreSzNTczkc9d"?>
<x:xmpmeta xmlns:x="adobe:ns:meta/" x:xmptk="Adobe XMP Core 5.6-c138 79.159824, 2016/09/14-01:09:01        ">
   <rdf:RDF xmlns:rdf="http://www.w3.org/1999/02/22-rdf-syntax-ns#">
      <rdf:Description rdf:about=""/>
   </rdf:RDF>
</x:xmpmeta>
                                                                                                    
                                                                                                    
                                                                                                    
                                                                                                    
                                                                                                    
                                                                                                    
                                                                                                    
                                                                                                    
                                                                                                    
                                                                                                    
                                                                                                    
                                                                                                    
                                                                                                    
                                                                                                    
                                                                                                    
                                                                                                    
                                                                                                    
                                                                                                    
                                                                                                    
                                                                                                    
                           
<?xpacket end="w"?></metadata>
<defs>
    <style>
      .cls-1 {
        fill: #ff9711;
        fill-rule: evenodd;
      }
    </style>
  </defs>
  <path id="Forma_1" data-name="Forma 1" class="cls-1" d="M995.431,963.377a5.37,5.37,0,0,0-7.588,0l-1.795,1.806v-10.5a5.325,5.325,0,0,0-1.57-3.791l-5.056-5.055a5.669,5.669,0,0,0-.523-0.459v-6.592A1.787,1.787,0,0,0,977.111,937H937.787A1.786,1.786,0,0,0,936,938.786v50.159a1.786,1.786,0,0,0,1.787,1.786h5.363v5.481A1.787,1.787,0,0,0,944.937,998h39.324a1.788,1.788,0,0,0,1.788-1.787V980.4l9.382-9.444A5.365,5.365,0,0,0,995.431,963.377Zm-20.107-15.536h0.307a1.779,1.779,0,0,1,1.264.523l5.055,5.055a1.776,1.776,0,0,1,.524,1.264v0.307h-7.15v-7.149Zm-32.174-1.787v41.1h-3.575V940.574h35.749v3.693H944.937A1.787,1.787,0,0,0,943.15,946.054Zm39.324,48.372H946.725V947.841h25.024v8.936a1.787,1.787,0,0,0,1.787,1.787h8.938v10.221l-12.207,12.287a1.791,1.791,0,0,0-.47.845l-1.574,6.614a1.789,1.789,0,0,0,2.148,2.153L977,989.126a1.788,1.788,0,0,0,.86-0.48L982.474,984v10.425h0Zm-6.1-9.355-0.688.693-3.314.778,0.788-3.308,0.683-.688A5.36,5.36,0,0,1,976.372,985.071Zm2.609-2.627a8.931,8.931,0,0,0-2.533-2.522c0.649-.652,9.5-9.561,10.148-10.214l2.528,2.527ZM992.9,968.435l-1.256,1.264-2.527-2.527,1.259-1.268A1.787,1.787,0,1,1,992.9,968.435Zm-26.512-17.019h-14.3a1.787,1.787,0,1,0,0,3.574h14.3A1.787,1.787,0,1,0,966.387,951.416Zm0,7.148h-14.3a1.787,1.787,0,0,0,0,3.574h14.3A1.787,1.787,0,0,0,966.387,958.564Zm10.724,7.148H952.087a1.787,1.787,0,0,0,0,3.574h25.024A1.787,1.787,0,1,0,977.111,965.712Zm-9.461,11.246a1.787,1.787,0,0,0-2.527,0l-9.461,9.459-2.311-2.31a1.787,1.787,0,0,0-2.528,2.527l3.575,3.574a1.788,1.788,0,0,0,2.528,0l10.724-10.722A1.788,1.788,0,0,0,967.65,976.958Z" transform="translate(-936 -937)"/>
</svg>
