<svg xmlns="http://www.w3.org/2000/svg" width="69" height="61" viewBox="0 0 69 61">
  <metadata><?xpacket begin="﻿" id="W5M0MpCehiHzreSzNTczkc9d"?>
<x:xmpmeta xmlns:x="adobe:ns:meta/" x:xmptk="Adobe XMP Core 5.6-c138 79.159824, 2016/09/14-01:09:01        ">
   <rdf:RDF xmlns:rdf="http://www.w3.org/1999/02/22-rdf-syntax-ns#">
      <rdf:Description rdf:about=""/>
   </rdf:RDF>
</x:xmpmeta>
                                                                                                    
                                                                                                    
                                                                                                    
                                                                                                    
                                                                                                    
                                                                                                    
                                                                                                    
                                                                                                    
                                                                                                    
                                                                                                    
                                                                                                    
                                                                                                    
                                                                                                    
                                                                                                    
                                                                                                    
                                                                                                    
                                                                                                    
                                                                                                    
                                                                                                    
                                                                                                    
                           
<?xpacket end="w"?></metadata>
<defs>
    <style>
      .cls-1 {
        fill: #ff9711;
        fill-rule: evenodd;
      }
    </style>
  </defs>
  <path id="Forma_1" data-name="Forma 1" class="cls-1" d="M118.456,1420.89h-3.783a1.025,1.025,0,0,0,0,2.05h3.783A1.025,1.025,0,0,0,118.456,1420.89Zm22.265-10.93-5.5-2.15-2.807-2.84a1.026,1.026,0,0,0-.649-0.29v-2.26a10.562,10.562,0,0,0,2.644-5.26,2.83,2.83,0,0,0,.709-0.06,3.02,3.02,0,0,0,2.321-3v-0.74a3.056,3.056,0,0,0-.89-2.17c0.892-4.91.157-8.91-2.136-11.58-2.218-2.59-5.791-3.83-10.333-3.58a13.5,13.5,0,0,0-7.764,2.89,5.4,5.4,0,0,0-2.08.72c-1.123.68-2.461,2.11-2.461,5.06a25.765,25.765,0,0,0,.7,5.93,3.027,3.027,0,0,0-1.646,2.74v0.73a3.019,3.019,0,0,0,2.321,3,2.826,2.826,0,0,0,.709.06,10.546,10.546,0,0,0,2.644,5.26v2.26a1.026,1.026,0,0,0-.65.29l-2.806,2.84-5.5,2.15a6.314,6.314,0,0,0-1.351.71,1.029,1.029,0,0,0-.268,1.42,1,1,0,0,0,1.4.27,4.728,4.728,0,0,1,.943-0.5l5.108-1.99,3.906,5.92a2.847,2.847,0,0,0,2.129,1.29,2.7,2.7,0,0,0,1.711-.36l-0.838,19.21a1.028,1.028,0,0,0,.966,1.07h0.045a1.017,1.017,0,0,0,1.009-.98l0.778-17.83h2.1l0.778,17.83a1.017,1.017,0,0,0,1.009.98h0.046a1.027,1.027,0,0,0,.965-1.07l-0.838-19.21a2.892,2.892,0,0,0,3.84-.93l3.906-5.92,5.108,1.99a4.716,4.716,0,0,1,1.818,1.28l-3.494,3.54a6.727,6.727,0,0,0-1.958,4.77v14.53a1.011,1.011,0,1,0,2.021,0v-14.53a4.7,4.7,0,0,1,1.366-3.33l3.067-3.1a4.773,4.773,0,0,1,.161,1.43l-0.782,19.49a1.015,1.015,0,0,0,.968,1.06H143.2a1.015,1.015,0,0,0,1.009-.98L145,1416.53A6.752,6.752,0,0,0,140.721,1409.96Zm-24.887-13.22a1.965,1.965,0,0,0-2.047-1.62,0.95,0.95,0,0,1-.235-0.02,0.987,0.987,0,0,1-.705-1v-0.73a0.967,0.967,0,0,1,.713-0.97,0.871,0.871,0,0,1,.866.33,1.392,1.392,0,0,0,1.937.31,7.262,7.262,0,0,0,1.657-1.64,1.03,1.03,0,0,0-.208-1.43,1.012,1.012,0,0,0-1.414.21,5.089,5.089,0,0,1-.787.86,3.07,3.07,0,0,0-1.1-.59,23.657,23.657,0,0,1-.722-5.75,3.589,3.589,0,0,1,1.418-3.27,3.27,3.27,0,0,1,1.511-.49,1.058,1.058,0,0,0,.7-0.28,11.248,11.248,0,0,1,6.764-2.59c3.9-.21,6.9.78,8.7,2.87,1.807,2.11,2.409,5.35,1.756,9.41a4.29,4.29,0,0,0-.862.06l-0.95-2.31a1,1,0,0,0-1.188-.59c-0.094.02-9.429,2.41-13.343-2.51a1.007,1.007,0,0,0-1.421-.16,1.033,1.033,0,0,0-.155,1.44c4,5.03,11.928,3.93,14.567,3.4l0.735,1.78a1.656,1.656,0,0,0,1.92,1,2.217,2.217,0,0,1,.756-0.06,0.957,0.957,0,0,1,.717.96v0.74a0.987,0.987,0,0,1-.705,1,0.946,0.946,0,0,1-.235.02,1.974,1.974,0,0,0-2.047,1.62A8.42,8.42,0,0,1,115.834,1396.74Zm4.484,18.06a0.882,0.882,0,0,1-1.355-.14l-3.935-5.96,1.583-1.61,6.04,5.35Zm2.852,1.34,0.061-1.4,0.9-.91,0.9,0.91,0.061,1.4h-1.92Zm0.96-5.11-5.609-4.96v-1.95a10.412,10.412,0,0,0,11.218,0v1.95Zm5.167,3.63a0.861,0.861,0,0,1-.646.39,0.849,0.849,0,0,1-.709-0.26l-2.333-2.35,6.04-5.35,1.583,1.6Zm-21.246.65-4.935-2.18-2.7-2.72a0.994,0.994,0,0,0-.65-0.3v-1.61a10.54,10.54,0,0,0,4.536-6.87,2.689,2.689,0,0,0,.8-0.07,3.035,3.035,0,0,0,2.233-2.98v-0.74a3.069,3.069,0,0,0-1.3-2.52,11.57,11.57,0,0,0,.35-2.83,11.939,11.939,0,0,0-5.676-10.1,6.69,6.69,0,0,0-13.366,0,11.939,11.939,0,0,0-5.676,10.1,11.641,11.641,0,0,0,.348,2.82,3.077,3.077,0,0,0-1.293,2.54v0.73a3.035,3.035,0,0,0,2.232,2.98,2.693,2.693,0,0,0,.8.07,10.536,10.536,0,0,0,4.535,6.87v1.61a0.993,0.993,0,0,0-.65.3l-2.7,2.72-4.936,2.18a6.807,6.807,0,0,0-4,6.48l0.6,14.23a1.016,1.016,0,0,0,1.009.98h0.043a1.023,1.023,0,0,0,.967-1.07l-0.6-14.23a4.712,4.712,0,0,1,.641-2.57l2.653,3.22a5.685,5.685,0,0,1,1.3,3.62v10.01a1.011,1.011,0,1,0,2.022,0v-10.01a7.752,7.752,0,0,0-1.769-4.93l-2.82-3.42a4.385,4.385,0,0,1,.767-0.44l4.3-1.89,3.04,4.98a1.966,1.966,0,0,0,1.362.92c0.1,0.01.2,0.02,0.305,0.02a1.927,1.927,0,0,0,1.269-.47l1.926-1.66v16.9a1.011,1.011,0,1,0,2.022,0v-16.9l1.926,1.66a1.927,1.927,0,0,0,1.269.47c0.1,0,.2-0.01.3-0.02a1.966,1.966,0,0,0,1.362-.92l3.04-4.98,4.3,1.89a4.407,4.407,0,0,1,.767.44l-2.82,3.42a7.75,7.75,0,0,0-1.769,4.93v10.01a1.011,1.011,0,1,0,2.022,0v-10.01a5.681,5.681,0,0,1,1.3-3.62l2.653-3.22a4.712,4.712,0,0,1,.64,2.57l-0.6,14.23a1.022,1.022,0,0,0,.967,1.07h0.043a1.016,1.016,0,0,0,1.009-.98l0.6-14.23A6.806,6.806,0,0,0,108.051,1415.31Zm-14.022-37.27a4.639,4.639,0,0,1,4.5,3.27,12.621,12.621,0,0,0-9,0A4.638,4.638,0,0,1,94.029,1378.04Zm-8.3,23.17a1.975,1.975,0,0,0-2.047-1.62,0.793,0.793,0,0,1-.264-0.02,1,1,0,0,1-.676-0.99v-0.73a0.979,0.979,0,0,1,.713-0.98,0.876,0.876,0,0,1,.865.34,1.418,1.418,0,0,0,1.937.31,7.579,7.579,0,0,0,1.636-1.61,1.029,1.029,0,0,0-.2-1.43,1,1,0,0,0-1.415.2,5.379,5.379,0,0,1-.771.84,2.9,2.9,0,0,0-1.525-.68,9.644,9.644,0,0,1-.293-2.35,10.344,10.344,0,0,1,20.674,0,9.671,9.671,0,0,1-.291,2.35,4.106,4.106,0,0,0-.787.13l-0.76-.63a1.912,1.912,0,0,0-1.348-.45c-1.486.09-9.1,0.29-13-4.43a1.008,1.008,0,0,0-1.424-.13,1.03,1.03,0,0,0-.127,1.44,14.417,14.417,0,0,0,8.393,4.68,24.509,24.509,0,0,0,6.242.48l1.185,0.99a0.993,0.993,0,0,0,1.149.09,2.143,2.143,0,0,1,1-.13,0.957,0.957,0,0,1,.717.96v0.74a1,1,0,0,1-.676.99,0.792,0.792,0,0,1-.264.02,1.975,1.975,0,0,0-2.047,1.62A8.418,8.418,0,0,1,85.733,1401.21Zm4.1,17.93-3.04-4.99,1.557-1.58,4.186,4.23Zm4.191-3.72-3.718-3.76v-2.11a10.36,10.36,0,0,0,7.435,0v2.11Zm4.191,3.72-2.7-2.34,4.186-4.23,1.558,1.58Zm-7.974,6.26H87.41a1.02,1.02,0,0,0,0,2.04h2.837A1.02,1.02,0,0,0,90.247,1425.4Z" transform="translate(-76 -1376)"/>
</svg>
