<svg xmlns="http://www.w3.org/2000/svg" width="48" height="62" viewBox="0 0 48 62">
  <metadata><?xpacket begin="﻿" id="W5M0MpCehiHzreSzNTczkc9d"?>
<x:xmpmeta xmlns:x="adobe:ns:meta/" x:xmptk="Adobe XMP Core 5.6-c138 79.159824, 2016/09/14-01:09:01        ">
   <rdf:RDF xmlns:rdf="http://www.w3.org/1999/02/22-rdf-syntax-ns#">
      <rdf:Description rdf:about=""/>
   </rdf:RDF>
</x:xmpmeta>
                                                                                                    
                                                                                                    
                                                                                                    
                                                                                                    
                                                                                                    
                                                                                                    
                                                                                                    
                                                                                                    
                                                                                                    
                                                                                                    
                                                                                                    
                                                                                                    
                                                                                                    
                                                                                                    
                                                                                                    
                                                                                                    
                                                                                                    
                                                                                                    
                                                                                                    
                                                                                                    
                           
<?xpacket end="w"?></metadata>
<defs>
    <style>
      .cls-1 {
        fill: #ff9711;
        fill-rule: evenodd;
      }
    </style>
  </defs>
  <path class="cls-1" d="M266.518,1424.43a7.576,7.576,0,0,1-8.631,1.31,7.853,7.853,0,0,1-2.656-2.09l-3.994,8.93a0.765,0.765,0,0,0,.117.83,0.746,0.746,0,0,0,.789.24l2.907-.82a3.792,3.792,0,0,1,1-.13,3.7,3.7,0,0,1,3.336,2.11l1.313,2.75a0.75,0.75,0,0,0,.7.44,0.741,0.741,0,0,0,.69-0.46l6.353-14.2A4.667,4.667,0,0,0,266.518,1424.43Zm22.245,8.15-3.994-8.93a7.863,7.863,0,0,1-2.656,2.09,7.576,7.576,0,0,1-8.631-1.31,4.667,4.667,0,0,0-1.922-1.09l6.353,14.2a0.74,0.74,0,0,0,.69.46,0.751,0.751,0,0,0,.7-0.44l1.313-2.75a3.7,3.7,0,0,1,3.336-2.11,3.79,3.79,0,0,1,1,.13l2.908,0.82a0.746,0.746,0,0,0,.789-0.24A0.765,0.765,0,0,0,288.763,1432.58Zm3.137-31.42a7.934,7.934,0,0,1-2.343-10.38,4.832,4.832,0,0,0-.41-5.46,4.709,4.709,0,0,0-5.178-1.62,7.776,7.776,0,0,1-9.488-4.62,4.8,4.8,0,0,0-8.962,0,7.776,7.776,0,0,1-9.488,4.62,4.709,4.709,0,0,0-5.178,1.62,4.83,4.83,0,0,0-.41,5.46,7.934,7.934,0,0,1-2.343,10.38,4.817,4.817,0,0,0-1.976,5.1,4.756,4.756,0,0,0,3.97,3.73,7.871,7.871,0,0,1,6.566,8.33,4.806,4.806,0,0,0,2.714,4.74,4.707,4.707,0,0,0,5.361-.81,7.731,7.731,0,0,1,10.53,0,4.705,4.705,0,0,0,5.36.81,4.805,4.805,0,0,0,2.715-4.74,7.871,7.871,0,0,1,6.566-8.33,4.765,4.765,0,0,0,3.969-3.73A4.815,4.815,0,0,0,291.9,1401.16ZM270,1416.68a15.941,15.941,0,1,1,15.767-15.94A15.872,15.872,0,0,1,270,1416.68Zm0-28.91a12.971,12.971,0,1,0,12.827,12.97A12.915,12.915,0,0,0,270,1387.77Zm6.573,11.71-7.983,5.9a1.5,1.5,0,0,1-.867.28,1.926,1.926,0,0,1-.239-0.02,1.435,1.435,0,0,1-.964-0.61l-2.387-3.44a1.5,1.5,0,0,1,.357-2.07,1.456,1.456,0,0,1,2.048.37l1.528,2.19,6.773-5a1.458,1.458,0,0,1,2.054.33A1.488,1.488,0,0,1,276.573,1399.48Z" transform="translate(-246 -1376)"/>
</svg>
