<svg xmlns="http://www.w3.org/2000/svg" width="59" height="60" viewBox="0 0 59 60">
  <metadata><?xpacket begin="﻿" id="W5M0MpCehiHzreSzNTczkc9d"?>
<x:xmpmeta xmlns:x="adobe:ns:meta/" x:xmptk="Adobe XMP Core 5.6-c138 79.159824, 2016/09/14-01:09:01        ">
   <rdf:RDF xmlns:rdf="http://www.w3.org/1999/02/22-rdf-syntax-ns#">
      <rdf:Description rdf:about=""/>
   </rdf:RDF>
</x:xmpmeta>
                                                                                                    
                                                                                                    
                                                                                                    
                                                                                                    
                                                                                                    
                                                                                                    
                                                                                                    
                                                                                                    
                                                                                                    
                                                                                                    
                                                                                                    
                                                                                                    
                                                                                                    
                                                                                                    
                                                                                                    
                                                                                                    
                                                                                                    
                                                                                                    
                                                                                                    
                                                                                                    
                           
<?xpacket end="w"?></metadata>
<defs>
    <style>
      .cls-1 {
        fill: #ff9711;
        fill-rule: evenodd;
      }
    </style>
  </defs>
  <path class="cls-1" d="M298.839,1260.37h-23.33a1.163,1.163,0,0,0-1.161,1.17,1.947,1.947,0,0,1-1.934,1.95h-3.858a1.948,1.948,0,0,1-1.935-1.95,1.163,1.163,0,0,0-1.161-1.17H247.335v-30.12a2.436,2.436,0,0,1,2.419-2.44h14.479l0.011,0.1-2.412,2.3a0.043,0.043,0,0,1-.024.02,11.254,11.254,0,0,0-3.27,7.97v5.24a1.177,1.177,0,0,0,.689,1.07,1.119,1.119,0,0,0,.472.1,1.2,1.2,0,0,0,.778-0.3l5.08-4.63a1.143,1.143,0,0,0,.673.53,14.582,14.582,0,0,0,4.2.62h0.051a14.934,14.934,0,0,0,4.251-.62,1.17,1.17,0,0,0,.684-0.55l5.107,4.65a1.2,1.2,0,0,0,.778.3,1.115,1.115,0,0,0,.471-0.1,1.176,1.176,0,0,0,.69-1.07v-5.24a11.254,11.254,0,0,0-3.27-7.97l-2.231-2.25,0.022-.17h14.263a2.436,2.436,0,0,1,2.419,2.44v21.49a1.161,1.161,0,1,0,2.322,0v-21.49a4.763,4.763,0,0,0-4.741-4.78h-14a19.606,19.606,0,0,0-4.947-14.59l-0.2-.22a1.969,1.969,0,0,0-1.467-.66h-0.015a1.952,1.952,0,0,0-1.473.68l-0.385.44A19.656,19.656,0,0,0,264,1225.47H249.754a4.763,4.763,0,0,0-4.741,4.78v30.12h-2.852a1.163,1.163,0,0,0-1.161,1.17v1.82a6.615,6.615,0,0,0,6.573,6.64h45.854a6.615,6.615,0,0,0,6.573-6.64v-1.82A1.163,1.163,0,0,0,298.839,1260.37Zm-22.8-25.01,0.554-4.43,0.957,0.96a8.921,8.921,0,0,1,2.59,6.31v2.6l-4.292-3.91Zm-5.537-22.69,0.133-.16a17.253,17.253,0,0,1,4.218,13.61l-0.267,2.14h0l-1.118,8.95h0l-0.119.95a12.576,12.576,0,0,1-2.868.33h-0.043a12.061,12.061,0,0,1-2.807-.33l-0.915-8.91-0.1-1h0l-0.255-2.49A17.3,17.3,0,0,1,270.5,1212.67Zm-5.338,24.21-4.3,3.92v-2.6a8.92,8.92,0,0,1,2.578-6.3l1.107-1.05Zm28.263,30.78H247.573a4.281,4.281,0,0,1-4.251-4.3v-0.65H264.46a4.267,4.267,0,0,0,4.1,3.12h3.859a4.267,4.267,0,0,0,4.1-3.12h21.169v0.65h0A4.281,4.281,0,0,1,293.427,1267.66Zm-3.324-37.23h-5.844a1.17,1.17,0,0,0,0,2.34h4.683v22.7h-36.5v-22.7h3.682a1.17,1.17,0,0,0,0-2.34h-4.843a1.163,1.163,0,0,0-1.161,1.17v25.05a1.17,1.17,0,0,0,1.161,1.17H290.1a1.17,1.17,0,0,0,1.161-1.17V1231.6A1.163,1.163,0,0,0,290.1,1230.43Zm-19.6-9.23a1.17,1.17,0,1,1-1.161,1.17A1.163,1.163,0,0,1,270.5,1221.2Zm24.326,34.48a1.17,1.17,0,1,1-1.161,1.17A1.163,1.163,0,0,1,294.826,1255.68Zm-27.345-13.14a1.163,1.163,0,0,0-1.161,1.17v4.77a1.161,1.161,0,1,0,2.322,0v-4.77A1.163,1.163,0,0,0,267.481,1242.54Zm5.9-.28a1.172,1.172,0,0,0-1.161,1.18v7.03a1.161,1.161,0,1,0,2.322,0v-7.03A1.172,1.172,0,0,0,273.379,1242.26Z" transform="translate(-241 -1210)"/>
</svg>
