<?xml version="1.0" standalone="no"?>
<!DOCTYPE svg PUBLIC "-//W3C//DTD SVG 20010904//EN"
 "http://www.w3.org/TR/2001/REC-SVG-20010904/DTD/svg10.dtd">
<svg version="1.0" xmlns="http://www.w3.org/2000/svg"
 width="1000.000000pt" height="1000.000000pt" viewBox="0 0 1000.000000 1000.000000"
 preserveAspectRatio="xMidYMid meet">
<metadata>
Created by potrace 1.11, written by Peter Selinger 2001-2013
</metadata>
<g transform="translate(0.000000,1000.000000) scale(0.100000,-0.100000)"
fill="#000000" stroke="none">
<path d="M426 8843 c-3 -3 -52 -6 -108 -7 -85 -1 -111 -5 -145 -23 -58 -30
-88 -59 -125 -117 -35 -54 -37 -60 -39 -126 -4 -127 -1 -135 93 -277 48 -73
88 -137 88 -142 0 -5 4 -11 8 -13 5 -1 50 -66 100 -143 49 -77 100 -153 112
-170 12 -16 57 -84 100 -150 43 -66 83 -125 89 -132 6 -7 11 -15 11 -18 0 -3
63 -100 140 -216 77 -115 140 -214 140 -219 0 -6 4 -10 8 -10 5 0 15 -12 23
-27 8 -16 16 -30 19 -33 8 -8 84 -124 89 -135 2 -5 8 -14 13 -20 22 -25 668
-1007 668 -1015 0 -5 4 -10 8 -12 12 -4 72 -95 72 -107 0 -6 5 -11 10 -11 6 0
10 -5 10 -10 0 -6 8 -20 18 -31 11 -10 25 -32 33 -47 8 -15 16 -29 19 -32 3
-3 34 -50 70 -105 36 -55 67 -102 70 -105 13 -13 70 -101 70 -109 0 -4 9 -16
20 -26 11 -10 20 -23 20 -30 0 -6 8 -20 18 -31 10 -10 37 -50 61 -89 24 -38
48 -71 53 -73 4 -2 8 -10 8 -18 0 -8 5 -14 10 -14 6 0 10 -5 10 -10 0 -6 35
-63 79 -128 260 -387 501 -754 501 -762 0 -6 3 -10 8 -10 4 0 21 -23 37 -51
17 -27 38 -59 48 -71 9 -12 17 -25 17 -29 0 -4 6 -14 13 -21 7 -7 28 -38 47
-68 19 -30 37 -57 41 -60 3 -3 12 -16 19 -29 7 -14 17 -30 22 -35 5 -6 86
-128 180 -271 95 -143 324 -489 510 -768 186 -279 338 -512 338 -517 0 -4 3
-10 8 -12 4 -1 103 -147 221 -323 298 -447 374 -558 388 -573 7 -7 13 -17 13
-20 0 -12 96 -71 126 -78 16 -4 61 -7 99 -7 55 -1 82 5 125 25 55 25 120 81
120 104 0 7 4 14 8 16 5 2 73 100 152 218 79 118 148 216 152 218 4 2 8 7 8
12 0 11 142 224 152 228 4 2 8 8 8 12 0 7 92 152 117 185 27 35 113 168 113
175 0 5 3 10 8 12 4 2 45 62 92 133 47 72 87 132 90 135 3 3 21 30 40 60 19
30 37 57 40 60 3 3 61 90 130 195 69 104 128 194 133 200 4 5 40 60 80 120 39
61 75 112 80 113 4 2 7 8 7 14 0 11 59 100 74 110 6 4 7 8 2 8 -5 0 -1 10 10
22 30 36 64 86 64 97 0 5 3 11 8 13 10 4 202 296 202 307 0 5 3 11 8 13 7 3
112 155 112 163 0 3 6 13 14 22 8 10 89 131 180 268 91 138 170 257 176 265 8
13 88 133 120 180 5 8 66 101 134 205 69 105 129 195 133 200 15 19 60 90 61
98 1 4 9 15 18 25 9 9 81 116 160 237 79 121 149 227 154 235 6 8 28 42 50 75
22 33 45 67 50 75 160 237 246 367 276 418 21 34 42 62 46 62 4 0 8 7 8 15 0
8 5 15 10 15 6 0 10 5 10 10 0 6 53 90 119 188 65 97 118 181 119 186 0 5 5
12 10 15 12 8 238 349 264 399 6 12 15 22 20 22 4 0 8 7 8 15 0 8 5 15 10 15
6 0 10 5 10 10 0 11 34 63 58 88 6 7 12 20 12 28 0 8 3 14 8 14 4 0 25 29 47
65 22 36 43 65 47 65 4 0 8 6 8 14 0 8 6 21 13 28 20 22 77 108 77 117 0 4 9
16 20 26 11 10 20 21 20 25 0 4 52 85 115 181 64 96 121 182 128 193 6 10 20
29 30 41 9 13 17 26 17 29 0 3 16 28 34 54 19 26 40 60 46 76 11 29 15 165 6
205 -9 38 -65 119 -105 150 -64 50 -79 54 -208 56 -68 1 -126 5 -129 8 -3 3
-19 1 -36 -4 -17 -4 -35 -6 -41 -2 -15 9 -50 10 -75 1 -13 -4 -21 -4 -18 1 7
11 -8611 12 -8640 1 -12 -5 -25 -6 -28 -3 -6 6 -124 6 -176 0 -14 -2 -31 1
-37 6 -9 6 -13 6 -13 -2 0 -7 -8 -8 -24 -1 -13 5 -27 6 -30 3z m3886 -626 c43
-2 80 -6 84 -9 5 -6 -22 -56 -37 -68 -3 -3 -18 -25 -33 -50 -15 -25 -35 -56
-45 -70 -10 -14 -38 -56 -62 -95 -24 -38 -47 -71 -51 -73 -5 -2 -8 -7 -8 -12
0 -8 -87 -141 -110 -167 -5 -7 -10 -15 -10 -19 0 -4 -16 -29 -35 -55 -19 -27
-35 -54 -35 -59 0 -6 -5 -10 -10 -10 -6 0 -14 -8 -17 -17 -8 -23 -46 -77 -55
-81 -5 -2 -8 -8 -8 -13 0 -12 -181 -283 -192 -287 -4 -2 -8 -8 -8 -12 0 -8
-113 -185 -137 -215 -4 -6 -80 -118 -167 -250 -88 -132 -163 -241 -168 -243
-4 -2 -8 -8 -8 -13 0 -11 -82 -133 -92 -137 -5 -2 -6 -8 -2 -13 3 -5 0 -9 -5
-9 -6 0 -11 -6 -11 -14 0 -8 -4 -16 -8 -18 -11 -4 -72 -97 -72 -109 0 -5 -5
-9 -10 -9 -6 0 -14 -8 -18 -18 -4 -10 -43 -71 -87 -135 -44 -65 -84 -126 -90
-135 -5 -9 -12 -19 -15 -22 -3 -3 -27 -36 -52 -75 -57 -84 -85 -121 -90 -115
-2 3 -43 66 -93 140 -49 74 -93 137 -97 138 -4 2 -8 9 -8 16 0 7 -8 21 -17 32
-29 32 -63 82 -63 92 0 5 -9 17 -20 27 -11 10 -20 24 -20 32 0 7 -4 13 -9 13
-5 0 -14 14 -21 30 -7 17 -16 30 -21 30 -5 0 -9 7 -9 15 0 8 -4 15 -8 15 -5 0
-19 19 -33 41 -28 48 -43 70 -86 133 -18 26 -33 49 -33 52 0 3 -17 28 -38 57
-20 29 -42 60 -47 69 -6 9 -73 110 -150 224 -77 114 -147 219 -155 233 -31 52
-75 116 -82 119 -5 2 -8 10 -8 17 0 7 -3 15 -7 17 -9 4 -73 96 -73 104 0 4
-13 23 -30 44 -16 21 -30 40 -30 44 0 8 -84 131 -92 134 -5 2 -8 8 -8 13 0 11
-42 72 -52 77 -5 2 -8 9 -8 16 0 7 -8 21 -17 32 -10 10 -24 31 -32 47 -8 15
-18 27 -23 27 -4 0 -8 5 -8 10 0 6 -18 37 -39 68 -86 125 -201 303 -201 312 0
4 -3 10 -7 12 -5 2 -27 31 -50 65 -29 44 -38 64 -30 71 7 5 64 10 127 11 63 1
115 3 116 4 4 4 3068 -2 3146 -6z m4673 0 c114 -6 107 -4 94 -29 -7 -13 -15
-25 -18 -28 -13 -10 -81 -120 -81 -130 0 -5 -4 -10 -10 -10 -5 0 -10 -6 -10
-14 0 -8 -3 -16 -8 -18 -4 -1 -23 -28 -42 -58 -19 -30 -37 -57 -40 -60 -3 -3
-11 -17 -19 -32 -8 -16 -18 -28 -23 -28 -4 0 -8 -4 -8 -10 0 -11 -122 -193
-132 -198 -5 -2 -8 -10 -8 -18 0 -8 -9 -23 -20 -34 -11 -11 -18 -20 -15 -20 2
0 -26 -44 -63 -97 -37 -54 -87 -129 -112 -168 -24 -38 -47 -72 -51 -75 -3 -3
-14 -20 -24 -37 -11 -18 -23 -33 -27 -33 -4 0 -8 -6 -8 -14 0 -8 -11 -27 -24
-43 -12 -15 -25 -33 -27 -38 -2 -6 -71 -110 -154 -233 -82 -123 -154 -230
-160 -240 -5 -9 -27 -40 -47 -69 -21 -29 -38 -54 -38 -57 0 -3 -62 -96 -130
-196 -6 -8 -51 -76 -100 -150 -49 -74 -96 -142 -105 -151 -8 -9 -15 -19 -15
-22 0 -9 -63 -101 -72 -105 -5 -2 -8 -10 -8 -17 0 -7 -3 -15 -7 -17 -5 -1 -34
-42 -66 -90 -32 -49 -61 -88 -65 -88 -6 1 -168 235 -207 299 -20 33 -170 256
-180 267 -8 10 -102 152 -140 213 -6 9 -78 116 -160 239 -83 123 -155 231
-160 240 -21 35 -190 287 -196 292 -3 3 -8 10 -10 15 -4 12 -220 337 -229 345
-3 3 -11 17 -19 33 -8 15 -18 27 -23 27 -4 0 -8 4 -8 10 0 9 -196 311 -219
337 -6 7 -11 14 -11 17 0 3 -18 31 -39 63 -99 147 -141 216 -136 221 3 3 52 8
108 10 56 2 103 4 104 5 3 4 3099 -3 3168 -6z m-3965 -287 c6 -5 535 -793 555
-827 6 -10 38 -59 73 -110 34 -51 62 -97 62 -102 0 -5 4 -11 8 -13 5 -1 59
-79 120 -173 61 -93 116 -175 120 -181 5 -5 15 -21 22 -35 7 -13 16 -26 20
-29 3 -3 17 -23 30 -45 13 -22 27 -42 30 -45 3 -3 17 -23 30 -45 13 -22 28
-44 33 -50 4 -5 54 -80 109 -165 56 -85 105 -156 110 -158 4 -2 8 -8 8 -13 0
-6 24 -45 53 -87 28 -42 55 -85 59 -94 4 -10 12 -18 18 -18 5 0 10 -6 10 -13
0 -7 7 -22 15 -32 23 -28 305 -456 305 -461 0 -3 5 -10 11 -17 18 -20 139
-210 139 -218 0 -4 -98 -155 -218 -336 -120 -180 -309 -465 -419 -633 -111
-168 -206 -310 -212 -317 -6 -7 -16 -24 -23 -38 -6 -14 -14 -25 -18 -25 -4 0
-12 -11 -18 -25 -7 -14 -17 -31 -22 -38 -6 -7 -108 -159 -228 -339 -119 -180
-223 -335 -229 -345 -7 -10 -27 -40 -45 -68 -18 -27 -36 -54 -40 -60 -5 -5
-36 -53 -70 -105 -35 -52 -66 -99 -70 -105 -5 -5 -19 -26 -31 -45 -85 -130
-253 -376 -259 -378 -5 -2 -8 -9 -8 -15 -1 -7 -14 -27 -29 -45 l-28 -33 -12
29 c-6 15 -22 39 -34 53 -13 13 -26 31 -30 39 -8 18 -30 53 -37 60 -17 16
-340 501 -340 510 0 5 -3 10 -8 12 -4 2 -119 172 -256 378 -137 206 -254 378
-260 382 -6 4 -8 8 -5 8 5 0 -189 296 -321 490 -49 72 -180 273 -180 277 0 2
-5 9 -11 16 -6 7 -98 145 -205 307 -107 162 -202 303 -210 313 -7 9 -14 21
-14 26 0 5 -7 14 -15 21 -8 7 -15 18 -15 25 0 11 65 114 191 303 27 41 49 78
49 82 0 5 3 10 8 12 6 3 198 286 212 313 14 27 266 401 275 407 6 5 6 8 0 8
-6 0 -6 3 0 8 8 5 113 159 180 263 5 9 28 44 50 79 22 34 46 68 53 75 6 8 12
16 12 18 0 4 83 132 98 152 25 31 172 259 172 265 0 5 3 10 8 12 4 2 110 158
237 348 126 190 234 350 240 357 5 6 24 34 40 62 17 28 33 51 38 51 4 0 7 7 7
15 0 8 5 15 10 15 6 0 10 4 10 10 0 20 74 113 79 99 2 -8 7 -16 11 -19z"/>
</g>
</svg>
